<svg width="100" height="100" viewBox="0 0 100 100" fill="none" xmlns="http://www.w3.org/2000/svg">
<g clip-path="url(#clip0_159_90420)">
<path d="M100 50.0155C100.009 77.6668 77.5131 100.033 49.9332 99.9999C22.5582 99.9673 -0.00296848 77.7841 2.92956e-07 49.9814C0.00296906 22.4027 22.3459 -0.0683676 50.1232 -8.89524e-05C77.9361 0.069674 100.04 22.6699 100 50.0155ZM61.3555 75.1123C62.2714 70.4189 62.8221 65.7374 63.1858 61.0306C63.358 58.8041 63.6638 52.5002 63.5094 51.6141C63.3179 51.5087 63.1056 51.5562 62.9023 51.5562C54.2914 51.5532 45.6819 51.5532 37.071 51.5547C36.9671 51.5547 36.8617 51.5473 36.7593 51.5577C36.6613 51.5681 36.5663 51.5963 36.4639 51.6186C36.4565 51.7462 36.4416 51.8501 36.4446 51.9525C36.4906 53.6877 36.5159 55.4243 36.593 57.158C36.691 59.3593 36.8291 61.5605 37.0591 63.7529C37.2373 65.4435 37.4095 67.1356 37.6247 68.8218C37.8681 70.7321 38.1754 72.6335 38.5331 74.526C38.5673 74.7101 38.6177 74.8897 38.6638 75.0812C38.7974 75.0945 38.8983 75.1123 38.9992 75.1123C46.4271 75.1123 53.8549 75.1123 61.3555 75.1123ZM36.4431 48.4169C36.7326 48.4213 36.9552 48.4273 37.1779 48.4273C45.719 48.4273 54.2602 48.4273 62.8013 48.4273C62.9409 48.4273 63.0789 48.4317 63.2184 48.4243C63.3179 48.4198 63.4159 48.402 63.5331 48.3872C63.5435 48.2759 63.5584 48.1927 63.5569 48.1096C63.5361 46.9474 63.5316 45.7837 63.4841 44.6215C63.4159 42.9561 63.3298 41.2922 63.2199 39.6297C63.1264 38.2092 63.0151 36.7902 62.8681 35.3757C62.7019 33.7711 62.5148 32.1666 62.2862 30.5709C62.0309 28.7853 61.7192 27.0086 61.4268 25.2274C61.4075 25.1131 61.3496 25.0062 61.314 24.9083C60.6727 24.8489 39.0809 24.8637 38.6697 24.9246C38.6341 25.0463 38.5851 25.1754 38.5598 25.3075C37.3367 31.8905 36.7103 38.5358 36.498 45.2241C36.4654 46.2631 36.4446 47.3022 36.4416 48.4169H36.4431ZM82.4175 51.5963C82.2453 51.528 82.0523 51.5547 81.8653 51.5547C77.0217 51.5547 72.1782 51.5547 67.3346 51.5547C67.2307 51.5547 67.1253 51.5488 67.0229 51.5577C66.9249 51.5666 66.827 51.5918 66.7171 51.6126C66.7053 51.7551 66.686 51.8739 66.686 51.9926C66.6711 54.32 66.5821 56.643 66.4455 58.9659C66.3757 60.1445 66.3 61.3215 66.2006 62.4986C66.0937 63.7603 65.969 65.0219 65.8295 66.2806C65.6899 67.5394 65.546 68.798 65.3604 70.0508C65.1274 71.6301 64.8527 73.202 64.5974 74.7769C64.5811 74.8748 64.5425 74.9817 64.6642 75.0901C64.7726 75.096 64.9077 75.1123 65.0442 75.1123C69.0372 75.1123 73.0302 75.1123 77.0232 75.1123C77.1583 75.1123 77.2949 75.0901 77.4463 75.0752C79.6432 70.0909 81.037 64.9002 81.8311 59.5374C82.1547 57.348 82.5882 52.2494 82.4175 51.5963ZM17.5721 51.5577C17.5484 51.6854 17.5246 51.7521 17.5261 51.8175C17.6256 55.1527 17.9447 58.4657 18.5355 61.752C19.1174 64.9848 19.9397 68.1553 21.0382 71.2516C21.4954 72.5415 21.9882 73.818 22.5493 75.0455C22.7779 75.1495 22.9887 75.1123 23.1935 75.1123C27.047 75.1153 30.9004 75.1138 34.7539 75.1138C34.8756 75.1138 34.9973 75.1212 35.1176 75.1094C35.2155 75.1005 35.312 75.0693 35.4486 75.0396C34.9691 72.4406 34.5802 69.8504 34.2759 67.2499C33.9731 64.6642 33.746 62.0711 33.5886 59.4721C33.4298 56.8582 33.3378 54.2428 33.3022 51.6171C33.2057 51.5904 33.1404 51.5592 33.0751 51.5577C27.9213 51.5547 22.7675 51.5562 17.5692 51.5562L17.5721 51.5577ZM82.4739 48.3783C82.4739 48.212 82.4783 48.0755 82.4739 47.9404C82.4531 47.455 82.4234 46.9697 82.4041 46.4843C82.3329 44.7491 82.1666 43.0214 81.9425 41.3011C81.653 39.0805 81.2493 36.8808 80.7253 34.7018C79.9608 31.5239 78.9514 28.4276 77.6674 25.4218C77.5932 25.2482 77.5086 25.0804 77.4374 24.9275C76.8867 24.8444 68.4583 24.8133 64.9641 24.8771C64.8453 24.8786 64.7266 24.8993 64.5707 24.9142C64.6019 25.4189 64.731 25.8864 64.8008 26.3629C64.8735 26.8601 64.97 27.3544 65.0502 27.8517C65.1288 28.3311 65.2016 28.8105 65.2728 29.2914C65.3426 29.7724 65.4109 30.2533 65.4732 30.7342C65.5385 31.2329 65.5979 31.7331 65.6588 32.2319C65.7167 32.7143 65.7746 33.1967 65.828 33.6791C65.8814 34.1615 65.9334 34.6454 65.9838 35.1278C66.0328 35.6117 66.0818 36.0941 66.1234 36.578C66.1679 37.0797 66.205 37.5814 66.2436 38.0831C66.2807 38.5669 66.3164 39.0523 66.349 39.5377C66.3831 40.0231 66.4143 40.507 66.444 40.9923C66.4752 41.494 66.5064 41.9972 66.5286 42.5004C66.5509 42.9858 66.5598 43.4726 66.5791 43.958C66.5984 44.4434 66.6251 44.9287 66.6399 45.4141C66.6548 45.9173 66.6518 46.4205 66.6682 46.9237C66.6845 47.4046 66.6399 47.8899 66.7275 48.3827C66.827 48.3991 66.9101 48.4198 66.9932 48.4243C68.2297 48.4748 81.9914 48.4391 82.4724 48.3783H82.4739ZM33.2962 48.3842C33.3333 47.8187 33.3155 47.2665 33.3318 46.7159C33.3482 46.1429 33.369 45.5714 33.3868 44.9985C33.4046 44.4434 33.4165 43.8882 33.4387 43.3331C33.4625 42.778 33.4936 42.2243 33.5248 41.6692C33.5575 41.0977 33.5916 40.5262 33.6287 39.9548C33.6644 39.4011 33.7015 38.846 33.743 38.2924C33.7846 37.7387 33.8276 37.185 33.8766 36.6314C33.9286 36.0614 33.9865 35.4914 34.0458 34.9215C34.1037 34.3693 34.1631 33.8171 34.2269 33.2664C34.2922 32.698 34.359 32.1295 34.4318 31.561C34.5015 31.0103 34.5772 30.4596 34.6544 29.9104C34.7301 29.3612 34.8058 28.8105 34.8919 28.2628C34.9795 27.6973 35.0923 27.1347 35.1695 26.5677C35.2437 26.023 35.4115 25.4886 35.4189 24.9483C35.3714 24.9231 35.3565 24.9112 35.3402 24.9068C35.3076 24.8964 35.2749 24.8845 35.2408 24.8815C35.171 24.8756 35.1027 24.8741 35.033 24.8741C30.9197 24.8771 26.805 24.8815 22.6918 24.8845C22.674 24.8845 22.6562 24.8875 22.6413 24.8934C22.6265 24.9008 22.6131 24.9142 22.5537 24.9602C22.4884 25.0997 22.3964 25.2853 22.3147 25.4738C21.2519 27.9674 20.3747 30.5249 19.6755 33.1432C18.819 36.3509 18.2253 39.606 17.8779 42.9071C17.6983 44.617 17.5974 46.3314 17.5306 48.0473C17.5261 48.1616 17.5543 48.2759 17.5721 48.4243C22.7378 48.4243 27.8738 48.4243 33.0097 48.4228C33.0929 48.4228 33.1745 48.4006 33.2962 48.3827V48.3842ZM39.3421 78.3007C39.3674 78.4595 39.3792 78.5782 39.4074 78.694C39.5633 79.3337 39.7177 79.975 39.8839 80.6132C40.6038 83.3696 41.4618 86.0785 42.5796 88.7028C43.206 90.1737 43.914 91.6031 44.7854 92.9479C45.3153 93.7658 45.9031 94.5391 46.6008 95.2219C47.049 95.6612 47.5359 96.0516 48.0896 96.3514C48.5824 96.6186 49.1005 96.8027 49.6645 96.8517C50.527 96.9274 51.3152 96.7077 52.0529 96.2743C52.7179 95.8824 53.2864 95.3763 53.803 94.8092C54.3774 94.1784 54.8762 93.4912 55.3319 92.7713C56.1706 91.4487 56.8579 90.0476 57.4665 88.6063C58.8261 85.3838 59.8088 82.0411 60.6074 78.6421C60.6341 78.5292 60.6356 78.412 60.649 78.2962C60.5688 78.2725 60.5198 78.2457 60.4708 78.2457C53.4913 78.2457 46.5132 78.2457 39.5336 78.2472C39.4861 78.2472 39.4371 78.2739 39.3391 78.3021L39.3421 78.3007ZM39.3599 21.6917C39.59 21.7882 39.8186 21.7467 40.0413 21.7467C46.6898 21.7496 53.3384 21.7481 59.9884 21.7481C60.1101 21.7481 60.2319 21.7541 60.3536 21.7467C60.4515 21.7407 60.5495 21.7199 60.6653 21.7021C60.6341 21.5225 60.6163 21.3682 60.5792 21.2182C60.1858 19.5647 59.7524 17.9201 59.2447 16.2977C58.5085 13.9436 57.6639 11.6325 56.561 9.42088C55.9791 8.2542 55.3304 7.12761 54.5437 6.08413C54.1043 5.50079 53.6249 4.95308 53.0742 4.46919C52.6021 4.05507 52.0915 3.69735 51.5111 3.44947C50.8416 3.16448 50.1514 3.05464 49.4255 3.17487C48.8689 3.2669 48.3598 3.47767 47.8803 3.76711C47.2197 4.16491 46.6572 4.67997 46.1451 5.25143C45.5528 5.91195 45.0407 6.63333 44.5716 7.38588C43.819 8.59708 43.1867 9.87211 42.6271 11.1813C41.2169 14.4765 40.209 17.9023 39.3867 21.386C39.3629 21.4839 39.3688 21.5893 39.3599 21.6947V21.6917ZM19.1367 75.05C19.058 74.8363 18.9897 74.6418 18.914 74.4518C17.8557 71.8053 16.9992 69.0964 16.3208 66.3281C15.7924 64.1699 15.3723 61.991 15.065 59.7897C14.8335 58.1392 14.6479 56.4841 14.5514 54.8202C14.498 53.9014 14.4564 52.9826 14.4059 52.0639C14.397 51.911 14.3792 51.7596 14.3659 51.6245C14.3006 51.5948 14.2709 51.5711 14.2382 51.5666C14.1699 51.5577 14.1002 51.5532 14.0304 51.5532C10.4545 51.5562 6.87864 51.5607 3.30127 51.5651C3.28494 51.5651 3.26713 51.5725 3.25229 51.58C3.23744 51.5889 3.22557 51.6022 3.21221 51.6126C3.00588 52.7006 3.72432 58.2089 4.48581 61.274C5.71043 66.196 7.67427 70.8019 10.3833 75.0619C10.7633 75.1138 18.2327 75.1509 18.9096 75.1064C18.9734 75.102 19.0357 75.0752 19.1352 75.0485L19.1367 75.05ZM89.6138 75.0574C89.6969 74.9298 89.7949 74.7888 89.8854 74.6418C92.0348 71.17 93.7032 67.4815 94.8833 63.5732C95.6166 61.1434 96.148 58.6706 96.4776 56.1531C96.6542 54.8098 96.7566 53.4606 96.8383 52.1099C96.8486 51.9421 96.8887 51.767 96.8071 51.6141C96.4197 51.5443 90.8354 51.5147 86.1225 51.5547C85.9696 51.5547 85.8182 51.5725 85.643 51.5844C85.6267 51.7462 85.6074 51.8798 85.603 52.0149C85.5139 54.4447 85.3358 56.8656 85.0107 59.2776C84.6915 61.6525 84.2537 64.0052 83.6836 66.3326C82.9934 69.1513 82.1147 71.9092 81.0325 74.6017C80.9761 74.7427 80.9316 74.8897 80.8722 75.0634C80.9925 75.0856 81.0741 75.1094 81.1557 75.1123C82.5941 75.1717 89.1595 75.1331 89.6138 75.0604V75.0574ZM80.8425 24.8934C80.945 25.1606 81.0147 25.3521 81.0904 25.5421C82.125 28.1411 82.9711 30.7995 83.6451 33.5143C84.2017 35.7556 84.644 38.0207 84.9543 40.3081C85.1354 41.6484 85.2808 42.9962 85.3937 44.3439C85.4991 45.6056 85.5376 46.8732 85.6074 48.1393C85.6119 48.221 85.6341 48.3026 85.6549 48.4124C85.8642 48.4169 86.0512 48.4258 86.2398 48.4258C89.5737 48.4258 92.9061 48.4258 96.2401 48.4258C96.344 48.4258 96.4493 48.4347 96.5518 48.4213C96.6483 48.4095 96.7433 48.3768 96.8368 48.3531C96.8368 48.1512 96.8457 47.9775 96.8368 47.8068C96.7536 46.4724 96.6512 45.141 96.4761 43.8155C96.1302 41.1942 95.5676 38.6219 94.7854 36.097C93.6082 32.2972 91.9665 28.7096 89.872 25.3298C89.7741 25.171 89.7043 24.9825 89.5321 24.8934H80.844H80.8425ZM14.3688 48.3857C14.3837 48.1972 14.4015 48.0265 14.4104 47.8558C14.4579 46.9726 14.4965 46.088 14.5499 45.2048C14.6791 43.0555 14.9359 40.9226 15.2788 38.797C15.7642 35.7972 16.4529 32.8449 17.3554 29.9431C17.8393 28.386 18.3886 26.8527 18.9912 25.3372C19.0447 25.2021 19.1589 25.0686 19.0743 24.8904H10.4189C10.315 25.0507 10.2081 25.2066 10.1087 25.3669C5.82324 32.3417 3.51057 39.9192 3.16322 48.0978C3.15877 48.1942 3.18549 48.2922 3.19588 48.3813C3.63377 48.4377 12.926 48.4703 14.1002 48.4228C14.1833 48.4199 14.2649 48.3991 14.3674 48.3827L14.3688 48.3857ZM24.1391 78.2977C24.2059 78.4432 24.2489 78.5545 24.3053 78.6599C26.0227 81.8511 28.0593 84.8183 30.5189 87.4871C32.6728 89.8219 35.0819 91.8465 37.828 93.457C39.3436 94.3461 40.9304 95.0809 42.5944 95.6434C42.7013 95.6791 42.8096 95.7651 42.9536 95.6494C42.8972 95.5662 42.8423 95.4816 42.7829 95.4C42.158 94.5435 41.6043 93.6441 41.0967 92.7149C40.2639 91.1905 39.5618 89.6067 38.9413 87.9858C37.8013 84.9994 36.9448 81.9298 36.2338 78.8172C36.1923 78.6346 36.1759 78.4417 36.072 78.2873C35.5926 78.2205 24.6289 78.225 24.1391 78.2992V78.2977ZM63.8998 78.2858C63.8107 78.6628 63.7231 79.0324 63.6356 79.4005C62.9498 82.3068 62.1378 85.176 61.0676 87.968C60.0522 90.6175 58.844 93.1691 57.1681 95.4757C57.131 95.5276 57.1117 95.593 57.0612 95.7013C57.2067 95.6776 57.3091 95.6761 57.3997 95.6434C57.793 95.5054 58.1849 95.3659 58.5723 95.213C61.4416 94.079 64.0215 92.464 66.3683 90.4736C70.3019 87.1368 73.3256 83.0816 75.7496 78.556C75.7882 78.4832 75.8105 78.4016 75.8372 78.3318C75.7912 78.2962 75.7645 78.2591 75.7377 78.2591C71.8843 78.2502 68.0293 78.2443 64.1759 78.2413C64.0927 78.2413 64.0096 78.2665 63.8998 78.2843V78.2858ZM57.1087 4.2599L57.0449 4.33857C57.1117 4.43654 57.177 4.53599 57.2453 4.63247C57.8361 5.44884 58.366 6.30381 58.8529 7.18549C59.7925 8.89098 60.5673 10.6707 61.2427 12.4934C62.2803 15.2943 63.0774 18.1665 63.7469 21.0757C63.7959 21.291 63.8107 21.5196 63.9443 21.7348C64.1195 21.7392 64.2902 21.7481 64.4623 21.7481C68.0724 21.7481 71.6809 21.7481 75.2909 21.7481C75.3948 21.7481 75.4987 21.7526 75.6027 21.7452C75.6828 21.7407 75.7793 21.7689 75.8387 21.6338C75.7808 21.5151 75.7184 21.3741 75.6457 21.2405C74.7061 19.4979 73.6626 17.8192 72.5033 16.2131C70.5736 13.5413 68.3707 11.1234 65.7998 9.05128C63.3773 7.09792 60.7276 5.53642 57.79 4.48552C57.5644 4.40537 57.3358 4.33412 57.1087 4.25842V4.2599ZM42.9774 4.26287C42.8497 4.28959 42.7681 4.2985 42.6939 4.32373C42.3332 4.4499 41.9724 4.57161 41.6162 4.70965C38.6059 5.87187 35.9176 7.56548 33.4729 9.65837C30.8039 11.9427 28.5521 14.5922 26.6031 17.506C25.7734 18.7468 25.0074 20.0263 24.3038 21.3429C24.2444 21.4542 24.1212 21.5626 24.2252 21.7481C24.4003 21.7481 24.5903 21.7481 24.7788 21.7481C27.2429 21.7481 29.707 21.7481 32.1711 21.7481C33.317 21.7481 34.4615 21.7496 35.6074 21.7467C35.7751 21.7467 35.9548 21.7912 36.1106 21.668C36.3273 20.7759 36.5351 19.8809 36.7623 18.9903C37.4748 16.1983 38.3209 13.4493 39.4297 10.7865C40.353 8.57036 41.4292 6.4374 42.8557 4.49591C42.8957 4.44248 42.9195 4.37716 42.9774 4.26287ZM20.5825 78.2443C17.9803 78.2443 15.4138 78.2442 12.8473 78.2472C12.8013 78.2472 12.7553 78.2843 12.7093 78.3036C12.9542 78.8231 14.3674 80.536 15.8458 82.1064C16.9769 83.3073 18.1659 84.4472 19.4157 85.5233C20.6656 86.5995 21.9674 87.6088 23.3226 88.5484C24.6779 89.488 26.0777 90.3548 27.5249 91.1445C29.5318 92.2414 31.4363 93.1245 32.0286 93.2136C27.0663 89.0813 23.4221 84.0004 20.581 78.2443H20.5825ZM67.9328 93.2448C68.0798 93.2329 68.1139 93.2388 68.1421 93.227C68.2876 93.1706 68.4331 93.1127 68.5756 93.0503C74.7952 90.3459 80.1879 86.4852 84.7405 81.4608C85.5911 80.5227 86.3704 79.5222 87.1809 78.5471C87.2417 78.4743 87.3397 78.4031 87.2491 78.2428C86.6138 78.2309 85.9577 78.2383 85.3016 78.2368C84.6589 78.2368 84.0176 78.2368 83.3749 78.2368C82.7322 78.2368 82.0553 78.2339 81.3962 78.2368C80.7401 78.2398 80.0825 78.2205 79.4146 78.2517C76.5838 83.9871 72.9412 89.0723 67.9328 93.2418V93.2448ZM87.3545 21.6903C87.2031 21.4869 87.0948 21.3325 86.979 21.1856C83.556 16.8098 79.4903 13.1465 74.7803 10.2001C72.7467 8.92808 70.627 7.82375 68.4212 6.88269C68.3069 6.83371 68.1956 6.74614 68.0115 6.79809C68.1555 6.92871 68.2654 7.03706 68.3841 7.13651C70.1639 8.6431 71.7833 10.307 73.2662 12.1045C75.5848 14.9143 77.519 17.9706 79.1518 21.2242C79.2364 21.3919 79.327 21.5581 79.4071 21.7081C79.9415 21.7719 86.8825 21.763 87.3545 21.6917V21.6903ZM20.5765 21.7437C20.8452 21.2242 21.102 20.7151 21.3692 20.2119C21.6379 19.7072 21.9125 19.204 22.1975 18.7068C22.4825 18.2095 22.7749 17.7167 23.0762 17.2299C23.3776 16.743 23.6863 16.2606 24.004 15.7841C24.3216 15.3077 24.6482 14.8372 24.9837 14.3726C25.3295 13.8946 25.6843 13.4226 26.048 12.958C26.4013 12.5068 26.7634 12.063 27.1345 11.6266C27.5056 11.1902 27.8856 10.7612 28.276 10.3412C28.6649 9.92109 29.0628 9.50845 29.4695 9.10472C29.8762 8.70247 30.3007 8.31506 30.7149 7.92023C31.1216 7.53283 31.5803 7.20182 32.0078 6.7595C31.0266 7.00589 27.7995 8.6238 25.6472 9.93445C21.5844 12.4088 17.9818 15.4353 14.832 18.9992C13.5198 20.4835 12.9141 21.2524 12.7152 21.6917C12.7613 21.7081 12.8043 21.7392 12.8488 21.7392C15.4168 21.7422 17.9848 21.7407 20.5751 21.7407L20.5765 21.7437Z" fill="#E268AE"/>
</g>
<defs>
<clipPath id="clip0_159_90420">
<rect width="100" height="100" fill="white"/>
</clipPath>
</defs>
</svg>
