<svg width="80" height="80" viewBox="0 0 80 80" fill="none" xmlns="http://www.w3.org/2000/svg">
<g clip-path="url(#clip0_159_90420)">
<path d="M80 40.0126C80.0071 62.1336 62.0104 80.0262 39.9465 80.0001C18.0465 79.974 -0.00237478 62.2275 2.34365e-07 39.9853C0.00237525 17.9224 17.8767 -0.0544987 40.0985 0.000124151C62.3489 0.0559345 80.032 18.1361 80 40.0126ZM49.0844 60.09C49.8171 56.3353 50.2577 52.5901 50.5486 48.8247C50.6864 47.0435 50.931 42.0004 50.8075 41.2915C50.6543 41.2072 50.4845 41.2451 50.3218 41.2451C43.4331 41.2428 36.5455 41.2428 29.6568 41.244C29.5737 41.244 29.4894 41.238 29.4074 41.2463C29.329 41.2546 29.253 41.2772 29.1711 41.295C29.1652 41.3971 29.1533 41.4803 29.1557 41.5622C29.1925 42.9503 29.2127 44.3397 29.2744 45.7266C29.3528 47.4876 29.4632 49.2486 29.6473 51.0025C29.7898 52.355 29.9275 53.7087 30.0997 55.0576C30.2945 56.5859 30.5403 58.107 30.8265 59.621C30.8538 59.7682 30.8942 59.9119 30.931 60.0651C31.0379 60.0758 31.1186 60.09 31.1994 60.09C37.1417 60.09 43.0839 60.09 49.0844 60.09ZM29.1545 38.7337C29.386 38.7372 29.5642 38.742 29.7423 38.742C36.5752 38.742 43.4081 38.742 50.241 38.742C50.3527 38.742 50.4631 38.7456 50.5747 38.7396C50.6543 38.7361 50.7327 38.7218 50.8265 38.7099C50.8348 38.6209 50.8467 38.5544 50.8455 38.4879C50.8289 37.5581 50.8253 36.6271 50.7873 35.6974C50.7327 34.365 50.6638 33.0339 50.5759 31.704C50.5011 30.5676 50.412 29.4324 50.2945 28.3007C50.1615 27.0171 50.0118 25.7334 49.829 24.4569C49.6247 23.0284 49.3753 21.607 49.1414 20.1821C49.126 20.0907 49.0797 20.0052 49.0512 19.9268C48.5382 19.8793 31.2647 19.8912 30.9357 19.9399C30.9072 20.0372 30.868 20.1405 30.8479 20.2462C29.8694 25.5126 29.3682 30.8288 29.1984 36.1795C29.1723 37.0107 29.1557 37.8419 29.1533 38.7337H29.1545ZM65.9339 41.2772C65.7962 41.2226 65.6418 41.244 65.4922 41.244C61.6174 41.244 57.7425 41.244 53.8677 41.244C53.7846 41.244 53.7002 41.2392 53.6183 41.2463C53.5399 41.2535 53.4616 41.2736 53.3737 41.2903C53.3642 41.4043 53.3487 41.4993 53.3487 41.5943C53.3369 43.4562 53.2656 45.3146 53.1564 47.1729C53.1006 48.1158 53.04 49.0574 52.9604 49.9991C52.8749 51.0084 52.7752 52.0177 52.6636 53.0247C52.5519 54.0317 52.4367 55.0386 52.2883 56.0408C52.1019 57.3043 51.8822 58.5618 51.6779 59.8217C51.6649 59.9 51.634 59.9855 51.7314 60.0722C51.818 60.077 51.9261 60.09 52.0354 60.09C55.2298 60.09 58.4241 60.09 61.6185 60.09C61.7266 60.09 61.8359 60.0722 61.957 60.0604C63.7145 56.0729 64.8296 51.9204 65.4649 47.6301C65.7238 45.8786 66.0705 41.7997 65.9339 41.2772ZM14.0577 41.2463C14.0387 41.3485 14.0197 41.4019 14.0209 41.4541C14.1005 44.1223 14.3558 46.7727 14.8284 49.4018C15.2939 51.988 15.9518 54.5244 16.8305 57.0015C17.1963 58.0334 17.5905 59.0546 18.0394 60.0366C18.2223 60.1197 18.3909 60.09 18.5548 60.09C21.6376 60.0924 24.7203 60.0912 27.8031 60.0912C27.9005 60.0912 27.9978 60.0972 28.094 60.0877C28.1724 60.0805 28.2496 60.0556 28.3588 60.0319C27.9753 57.9526 27.6642 55.8805 27.4207 53.8001C27.1785 51.7316 26.9968 49.6571 26.8709 47.5778C26.7438 45.4867 26.6702 43.3944 26.6417 41.2938C26.5645 41.2725 26.5123 41.2475 26.46 41.2463C22.337 41.244 18.214 41.2451 14.0553 41.2451L14.0577 41.2463ZM65.9791 38.7028C65.9791 38.5698 65.9826 38.4606 65.9791 38.3525C65.9624 37.9642 65.9387 37.5759 65.9233 37.1876C65.8663 35.7995 65.7333 34.4173 65.5539 33.041C65.3224 31.2646 64.9994 29.5048 64.5802 27.7616C63.9686 25.2193 63.1611 22.7422 62.1339 20.3376C62.0745 20.1987 62.0069 20.0645 61.9499 19.9422C61.5093 19.8757 54.7666 19.8508 51.9712 19.9019C51.8762 19.903 51.7812 19.9197 51.6565 19.9315C51.6815 20.3353 51.7848 20.7093 51.8406 21.0905C51.8988 21.4883 51.976 21.8837 52.0401 22.2815C52.103 22.6651 52.1612 23.0486 52.2182 23.4333C52.274 23.8181 52.3287 24.2028 52.3785 24.5875C52.4308 24.9865 52.4783 25.3867 52.527 25.7857C52.5733 26.1716 52.6196 26.5575 52.6624 26.9435C52.7051 27.3294 52.7467 27.7165 52.787 28.1024C52.8262 28.4895 52.8654 28.8754 52.8987 29.2626C52.9343 29.6639 52.964 30.0653 52.9949 30.4666C53.0246 30.8537 53.0531 31.242 53.0792 31.6303C53.1065 32.0186 53.1314 32.4057 53.1552 32.794C53.1801 33.1954 53.2051 33.5979 53.2229 34.0005C53.2407 34.3888 53.2478 34.7783 53.2632 35.1666C53.2787 35.5549 53.3001 35.9432 53.3119 36.3315C53.3238 36.734 53.3214 37.1366 53.3345 37.5391C53.3476 37.9238 53.3119 38.3121 53.382 38.7064C53.4616 38.7194 53.5281 38.7361 53.5946 38.7396C54.5837 38.78 65.5931 38.7515 65.9779 38.7028H65.9791ZM26.637 38.7076C26.6667 38.2551 26.6524 37.8134 26.6655 37.3729C26.6785 36.9145 26.6952 36.4573 26.7094 35.999C26.7237 35.5549 26.7332 35.1108 26.751 34.6667C26.77 34.2225 26.7949 33.7796 26.8198 33.3355C26.846 32.8783 26.8733 32.4212 26.903 31.964C26.9315 31.5211 26.9612 31.077 26.9944 30.6341C27.0277 30.1911 27.0621 29.7482 27.1013 29.3053C27.1428 28.8493 27.1892 28.3933 27.2367 27.9374C27.283 27.4956 27.3305 27.0539 27.3815 26.6133C27.4338 26.1585 27.4872 25.7038 27.5454 25.249C27.6012 24.8084 27.6618 24.3679 27.7235 23.9285C27.7841 23.4892 27.8447 23.0486 27.9135 22.6104C27.9836 22.158 28.0738 21.708 28.1356 21.2544C28.195 20.8186 28.3292 20.3911 28.3351 19.9589C28.2971 19.9387 28.2852 19.9292 28.2722 19.9256C28.246 19.9173 28.2199 19.9078 28.1926 19.9054C28.1368 19.9007 28.0822 19.8995 28.0263 19.8995C24.7358 19.9019 21.444 19.9054 18.1534 19.9078C18.1392 19.9078 18.1249 19.9102 18.113 19.9149C18.1012 19.9209 18.0905 19.9315 18.043 19.9684C17.9907 20.08 17.9171 20.2284 17.8518 20.3792C17.0015 22.3741 16.2997 24.4201 15.7404 26.5148C15.0552 29.0809 14.5802 31.685 14.3023 34.3259C14.1586 35.6938 14.0779 37.0653 14.0245 38.438C14.0209 38.5294 14.0435 38.6209 14.0577 38.7396C18.1902 38.7396 22.299 38.7396 26.4078 38.7384C26.4743 38.7384 26.5396 38.7206 26.637 38.7064V38.7076ZM31.4737 62.6407C31.4939 62.7678 31.5034 62.8627 31.5259 62.9554C31.6506 63.4672 31.7741 63.9801 31.9071 64.4907C32.4831 66.6958 33.1694 68.8629 34.0636 70.9624C34.5648 72.1391 35.1312 73.2827 35.8283 74.3585C36.2522 75.0128 36.7225 75.6314 37.2806 76.1777C37.6392 76.5292 38.0287 76.8415 38.4717 77.0813C38.8659 77.2951 39.2803 77.4423 39.7316 77.4815C40.4215 77.5421 41.0521 77.3663 41.6423 77.0196C42.1743 76.7061 42.6291 76.3012 43.0424 75.8476C43.5019 75.3429 43.9009 74.7931 44.2655 74.2172C44.9364 73.1592 45.4863 72.0382 45.9731 70.8852C47.0609 68.3072 47.847 65.6331 48.4859 62.9138C48.5073 62.8236 48.5085 62.7298 48.5191 62.6371C48.455 62.6181 48.4158 62.5968 48.3767 62.5968C42.793 62.5968 37.2105 62.5968 31.6269 62.5979C31.5889 62.5979 31.5497 62.6193 31.4713 62.6419L31.4737 62.6407ZM31.4879 17.3536C31.672 17.4308 31.8549 17.3975 32.033 17.3975C37.3518 17.3999 42.6707 17.3987 47.9907 17.3987C48.0881 17.3987 48.1855 17.4034 48.2828 17.3975C48.3612 17.3928 48.4396 17.3761 48.5322 17.3619C48.5073 17.2182 48.493 17.0947 48.4633 16.9748C48.1486 15.652 47.8019 14.3363 47.3958 13.0384C46.8068 11.1551 46.1311 9.3062 45.2488 7.53689C44.7833 6.60356 44.2643 5.70228 43.6349 4.8675C43.2834 4.40083 42.8999 3.96266 42.4593 3.57555C42.0817 3.24425 41.6732 2.95807 41.2089 2.75977C40.6733 2.53178 40.1211 2.4439 39.5404 2.54009C39.0951 2.61371 38.6878 2.78233 38.3042 3.01388C37.7758 3.33212 37.3257 3.74417 36.916 4.20134C36.4422 4.72975 36.0325 5.30686 35.6573 5.90889C35.0552 6.87786 34.5493 7.89788 34.1016 8.94521C32.9735 11.5814 32.1672 14.322 31.5093 17.109C31.4903 17.1873 31.4951 17.2716 31.4879 17.356V17.3536ZM15.3093 60.0402C15.2464 59.8692 15.1918 59.7136 15.1312 59.5616C14.2845 57.4444 13.5993 55.2773 13.0566 53.0627C12.6339 51.3361 12.2978 49.5929 12.052 47.832C11.8668 46.5115 11.7183 45.1875 11.6411 43.8564C11.5984 43.1213 11.5651 42.3863 11.5248 41.6513C11.5176 41.529 11.5034 41.4078 11.4927 41.2998C11.4404 41.276 11.4167 41.257 11.3906 41.2535C11.3359 41.2463 11.2801 41.2428 11.2243 41.2428C8.36361 41.2451 5.50291 41.2487 2.64102 41.2523C2.62795 41.2523 2.6137 41.2582 2.60183 41.2641C2.58995 41.2713 2.58045 41.282 2.56976 41.2903C2.4047 42.1607 2.97945 46.5673 3.58865 49.0194C4.56834 52.957 6.13941 56.6417 8.30661 60.0497C8.61061 60.0912 14.5861 60.1209 15.1276 60.0853C15.1787 60.0817 15.2286 60.0604 15.3082 60.039L15.3093 60.0402ZM71.691 60.0461C71.7575 59.944 71.8358 59.8312 71.9083 59.7136C73.6278 56.9362 74.9626 53.9853 75.9066 50.8588C76.4933 48.9149 76.9184 46.9366 77.182 44.9227C77.3233 43.848 77.4053 42.7687 77.4706 41.6881C77.4789 41.5539 77.5109 41.4138 77.4456 41.2915C77.1357 41.2357 72.6683 41.2119 68.898 41.244C68.7756 41.244 68.6545 41.2582 68.5144 41.2677C68.5013 41.3971 68.4859 41.504 68.4823 41.6121C68.4111 43.5559 68.2686 45.4927 68.0085 47.4223C67.7532 49.3222 67.4029 51.2043 66.9469 53.0663C66.3947 55.3212 65.6917 57.5275 64.826 59.6816C64.7809 59.7944 64.7452 59.9119 64.6977 60.0509C64.7939 60.0687 64.8592 60.0877 64.9246 60.09C66.0752 60.1375 71.3276 60.1067 71.691 60.0485V60.0461ZM64.674 19.9149C64.7559 20.1287 64.8117 20.2818 64.8723 20.4338C65.7 22.5131 66.3769 24.6398 66.916 26.8116C67.3613 28.6047 67.7152 30.4168 67.9634 32.2466C68.1083 33.3189 68.2246 34.3971 68.3149 35.4753C68.3992 36.4846 68.4301 37.4987 68.4859 38.5116C68.4894 38.5769 68.5073 38.6422 68.5239 38.7301C68.6913 38.7337 68.841 38.7408 68.9918 38.7408C71.6589 38.7408 74.3249 38.7408 76.992 38.7408C77.0751 38.7408 77.1594 38.7479 77.2414 38.7372C77.3186 38.7277 77.3946 38.7016 77.4694 38.6826C77.4694 38.5211 77.4765 38.3822 77.4694 38.2456C77.4029 37.1781 77.3209 36.113 77.1808 35.0526C76.9041 32.9555 76.4541 30.8977 75.8282 28.8778C74.8866 25.8379 73.5732 22.9679 71.8976 20.264C71.8192 20.137 71.7634 19.9862 71.6257 19.9149H64.6752H64.674ZM11.4951 38.7087C11.5069 38.5579 11.5212 38.4214 11.5283 38.2848C11.5663 37.5783 11.5972 36.8706 11.6399 36.164C11.7433 34.4446 11.9487 32.7382 12.223 31.0378C12.6113 28.638 13.1623 26.2761 13.8843 23.9546C14.2715 22.709 14.7108 21.4824 15.193 20.27C15.2357 20.1619 15.3271 20.055 15.2595 19.9125H8.33511C8.25198 20.0408 8.16648 20.1655 8.08692 20.2937C4.65859 25.8736 2.80845 31.9355 2.53058 38.4784C2.52701 38.5556 2.54839 38.6339 2.5567 38.7052C2.90702 38.7503 10.3408 38.7764 11.2801 38.7384C11.3466 38.7361 11.4119 38.7194 11.4939 38.7064L11.4951 38.7087ZM19.3112 62.6383C19.3647 62.7547 19.3991 62.8437 19.4442 62.9281C20.8182 65.4811 22.4474 67.8548 24.4151 69.9898C26.1382 71.8577 28.0655 73.4774 30.2624 74.7658C31.4749 75.4771 32.7443 76.0649 34.0755 76.5149C34.161 76.5434 34.2477 76.6123 34.3629 76.5197C34.3178 76.4532 34.2738 76.3855 34.2263 76.3202C33.7264 75.635 33.2834 74.9154 32.8773 74.1721C32.2111 72.9525 31.6494 71.6855 31.1531 70.3888C30.241 67.9997 29.5559 65.544 28.987 63.0539C28.9538 62.9079 28.9407 62.7535 28.8576 62.63C28.474 62.5766 19.7031 62.5801 19.3112 62.6395V62.6383ZM51.1198 62.6288C51.0485 62.9304 50.9785 63.2261 50.9084 63.5206C50.3598 65.8456 49.7102 68.141 48.854 70.3746C48.0418 72.4942 47.0751 74.5354 45.7344 76.3807C45.7048 76.4223 45.6893 76.4745 45.6489 76.5612C45.7653 76.5422 45.8473 76.541 45.9197 76.5149C46.2344 76.4045 46.5479 76.2929 46.8578 76.1705C49.1533 75.2633 51.2172 73.9714 53.0946 72.379C56.2415 69.7096 58.6605 66.4655 60.5997 62.8449C60.6305 62.7867 60.6483 62.7214 60.6697 62.6656C60.6329 62.6371 60.6115 62.6074 60.5902 62.6074C57.5074 62.6003 54.4234 62.5956 51.3407 62.5932C51.2742 62.5932 51.2077 62.6134 51.1198 62.6276V62.6288ZM45.6869 3.40812L45.6359 3.47105C45.6893 3.54942 45.7416 3.62898 45.7962 3.70617C46.2688 4.35927 46.6928 5.04324 47.0823 5.74859C47.834 7.11297 48.4538 8.53673 48.9942 9.99492C49.8242 12.2356 50.4619 14.5334 50.9975 16.8608C51.0367 17.033 51.0485 17.2158 51.1554 17.388C51.2955 17.3916 51.4321 17.3987 51.5699 17.3987C54.4579 17.3987 57.3447 17.3987 60.2327 17.3987C60.3158 17.3987 60.399 17.4023 60.4821 17.3963C60.5462 17.3928 60.6234 17.4153 60.6709 17.3073C60.6246 17.2123 60.5747 17.0995 60.5165 16.9926C59.7648 15.5985 58.93 14.2555 58.0026 12.9707C56.4588 10.8333 54.6966 8.8989 52.6398 7.24122C50.7018 5.67853 48.5821 4.42933 46.232 3.58861C46.0515 3.52449 45.8686 3.46749 45.6869 3.40693V3.40812ZM34.3819 3.41049C34.2798 3.43187 34.2144 3.43899 34.1551 3.45918C33.8665 3.56011 33.5779 3.65748 33.2929 3.76792C30.8847 4.69769 28.7341 6.05258 26.7783 7.72689C24.6431 9.55438 22.8417 11.674 21.2825 14.005C20.6187 14.9977 20.0059 16.0213 19.443 17.0745C19.3955 17.1636 19.297 17.2503 19.3801 17.3987C19.5202 17.3987 19.6722 17.3987 19.823 17.3987C21.7943 17.3987 23.7656 17.3987 25.7368 17.3987C26.6536 17.3987 27.5692 17.3999 28.4859 17.3975C28.6201 17.3975 28.7638 17.4331 28.8885 17.3346C29.0619 16.6209 29.2281 15.9049 29.4098 15.1924C29.9798 12.9588 30.6567 10.7596 31.5437 8.62935C32.2824 6.85648 33.1433 5.15011 34.2845 3.59692C34.3166 3.55417 34.3356 3.50193 34.3819 3.41049ZM16.466 62.5956C14.3843 62.5956 12.3311 62.5956 10.2779 62.5979C10.2411 62.5979 10.2042 62.6276 10.1674 62.6431C10.3634 63.0587 11.4939 64.429 12.6766 65.6853C13.5815 66.646 14.5327 67.5579 15.5326 68.4188C16.5325 69.2797 17.5739 70.0872 18.6581 70.8389C19.7423 71.5905 20.8621 72.284 22.0199 72.9157C23.6254 73.7933 25.149 74.4998 25.6228 74.571C21.653 71.2652 18.7377 67.2005 16.4648 62.5956H16.466ZM54.3462 74.596C54.4638 74.5865 54.4911 74.5912 54.5137 74.5817C54.6301 74.5366 54.7464 74.4903 54.8604 74.4404C59.8361 72.2769 64.1503 69.1883 67.7924 65.1688C68.4728 64.4183 69.0963 63.618 69.7446 62.8378C69.7933 62.7796 69.8717 62.7226 69.7993 62.5944C69.291 62.5849 68.7661 62.5908 68.2413 62.5896C67.7271 62.5896 67.2141 62.5896 66.6999 62.5896C66.1857 62.5896 65.6442 62.5873 65.1169 62.5896C64.5921 62.592 64.066 62.5766 63.5316 62.6015C61.267 67.1898 58.3529 71.258 54.3462 74.5936V74.596ZM69.8836 17.3524C69.7625 17.1897 69.6758 17.0662 69.5831 16.9487C66.8448 13.448 63.5922 10.5174 59.8242 8.16031C58.1973 7.14266 56.5016 6.25919 54.7369 5.50635C54.6455 5.46716 54.5564 5.3971 54.4092 5.43866C54.5244 5.54316 54.6122 5.62984 54.7072 5.7094C56.1311 6.91467 57.4266 8.2458 58.613 9.68381C60.4678 11.9317 62.0152 14.3766 63.3214 16.9795C63.3891 17.1137 63.4616 17.2467 63.5257 17.3666C63.9532 17.4177 69.506 17.4106 69.8836 17.3536V17.3524ZM16.4612 17.3951C16.6762 16.9795 16.8816 16.5722 17.0953 16.1697C17.3103 15.766 17.53 15.3634 17.758 14.9656C17.986 14.5678 18.2199 14.1736 18.461 13.7841C18.702 13.3946 18.949 13.0087 19.2032 12.6275C19.4573 12.2463 19.7185 11.8699 19.9869 11.4982C20.2636 11.1159 20.5474 10.7383 20.8384 10.3666C21.121 10.0056 21.4107 9.65056 21.7076 9.30145C22.0045 8.95234 22.3085 8.60916 22.6208 8.27312C22.9319 7.93707 23.2502 7.60695 23.5756 7.28397C23.9009 6.96217 24.2406 6.65224 24.5719 6.33638C24.8973 6.02645 25.2642 5.76165 25.6062 5.40779C24.8213 5.60491 22.2396 6.89923 20.5177 7.94775C17.2675 9.92724 14.3855 12.3485 11.8656 15.1995C10.8158 16.387 10.3313 17.0021 10.1722 17.3536C10.209 17.3666 10.2434 17.3916 10.2791 17.3916C12.3334 17.394 14.3878 17.3928 16.46 17.3928L16.4612 17.3951Z" fill="#D41D86"/>
</g>
<defs>
<clipPath id="clip0_159_90420">
<rect width="80" height="80" fill="white"/>
</clipPath>
</defs>
</svg>
