<svg width="80" height="80" viewBox="0 0 80 80" fill="none" xmlns="http://www.w3.org/2000/svg">
<path d="M13.195 68.141C13.2379 68.1177 13.2809 68.0945 13.3453 68.0605C13.1574 68.0157 12.9891 67.9871 12.828 67.9369C12.4395 67.8116 12.1066 67.595 11.813 67.3122C10.474 66.0269 9.24602 64.6414 8.10931 63.1789C6.2154 60.7426 4.59357 58.138 3.32798 55.315C2.27004 52.9557 1.48419 50.5122 0.91494 47.9936C0.488898 46.1068 0.182793 44.2004 0.0735972 42.2706C0.000203558 40.9889 -0.0194874 39.7001 0.0198946 38.4166C0.0592765 37.1044 0.157731 35.7905 0.309889 34.4855C0.567662 32.2622 1.10111 30.0909 1.7706 27.9571C2.61015 25.2863 3.72896 22.7318 5.16282 20.3241C6.32817 18.3676 7.60272 16.4808 9.09386 14.7587C10.0032 13.7097 10.9788 12.7145 11.967 11.7371C12.7886 10.9262 14.0918 10.7865 15.1909 11.3074C16.1808 11.7747 16.836 12.897 16.7626 14.023C16.7125 14.7874 16.4028 15.4336 15.8658 15.985C15.1444 16.7261 14.4247 17.4671 13.7302 18.2333C12.5237 19.5651 11.5176 21.0473 10.5743 22.5743C9.67922 24.0242 8.91127 25.5387 8.25789 27.1122C7.22143 29.6111 6.47854 32.196 6.10799 34.8776C5.81084 37.0239 5.69806 39.1827 5.82695 41.3487C5.98627 44.0124 6.39978 46.6313 7.20711 49.1804C8.37783 52.8787 10.0909 56.3032 12.4539 59.3893C13.4778 60.7265 14.6199 61.9527 15.8121 63.1431C17.4876 64.8132 16.657 67.2889 14.7112 67.9728C14.6199 68.005 14.5232 68.0157 14.4319 68.0461C14.4122 68.0533 14.4086 68.107 14.3979 68.1392C13.9951 68.1392 13.5941 68.1392 13.1914 68.1392L13.195 68.141Z" fill="#D41D86"/>
<path d="M65.5286 68.141C65.5644 68.1178 65.5984 68.0963 65.645 68.0658C65.4266 68.0068 65.2118 67.9656 65.0077 67.8922C64.0607 67.5539 63.3447 66.5675 63.291 65.5669C63.2409 64.6539 63.5112 63.8645 64.1717 63.2254C65.355 62.0798 66.4398 60.8464 67.4619 59.5593C68.5825 58.1488 69.5277 56.6218 70.3941 55.0412C71.2909 53.4068 71.9765 51.6883 72.5851 49.934C73.3441 47.7483 73.8042 45.5018 74.0656 43.2087C74.3054 41.1053 74.3305 39.0002 74.1658 36.8879C73.9474 34.072 73.3728 31.335 72.4061 28.6857C71.7295 26.8293 70.915 25.0357 69.9322 23.3136C68.7472 21.2371 67.3545 19.3199 65.7309 17.5692C65.2816 17.0841 64.8251 16.6043 64.3561 16.1371C63.8083 15.5911 63.4503 14.9467 63.4056 14.1752C63.3572 13.35 63.649 12.6196 64.2433 12.0432C65.4463 10.8743 67.0896 10.8904 68.2854 12.0682C69.3039 13.0689 70.3064 14.0839 71.2032 15.1991C72.6639 17.0161 73.9868 18.9261 75.1396 20.9507C75.8556 22.2091 76.4768 23.5159 77.0264 24.8567C77.7692 26.6646 78.3868 28.512 78.8523 30.4113C79.298 32.2229 79.6238 34.0559 79.8082 35.914C80.0176 38.012 80.0677 40.1118 79.8995 42.2134C79.7777 43.7242 79.5987 45.2279 79.3087 46.7172C78.8755 48.9441 78.2615 51.1209 77.4685 53.2421C76.7059 55.2828 75.7447 57.2322 74.6312 59.1064C73.4211 61.1454 72.0141 63.0411 70.4675 64.8329C69.7443 65.6707 68.9369 66.4351 68.1565 67.2209C67.7268 67.6541 67.222 67.9692 66.5543 68.0551C66.6259 68.0999 66.6564 68.1196 66.685 68.1375C66.2984 68.1375 65.9117 68.1375 65.5232 68.1375L65.5286 68.141Z" fill="#D41D86"/>
<path d="M62.8118 40.0671C62.7689 43.1818 62.1101 46.4326 60.8481 49.5563C59.8976 51.9121 58.6445 54.0924 57.0495 56.0794C56.3031 57.0103 55.5011 57.8838 54.6347 58.7019C53.276 59.9854 51.2693 59.8135 50.2418 58.3242C49.4954 57.2448 49.6368 55.6623 50.5963 54.6903C51.4698 53.806 52.3362 52.9217 53.0755 51.9174C54.6079 49.8356 55.6909 47.5425 56.3765 45.0525C56.9958 42.8095 57.1981 40.5307 57.0639 38.2125C56.9511 36.2703 56.5537 34.3925 55.8931 32.5648C55.1628 30.5456 54.189 28.6552 52.8464 26.9779C52.1554 26.1151 51.3821 25.3149 50.6142 24.5183C49.5634 23.4282 49.4488 21.8153 50.3797 20.6661C51.4591 19.3324 53.421 19.259 54.683 20.4799C56.5018 22.2413 58.0198 24.2319 59.2836 26.4194C60.6387 28.7644 61.5964 31.2634 62.1781 33.9074C62.606 35.8514 62.8315 37.8169 62.8118 40.0671Z" fill="#D41D86"/>
<path d="M17.118 39.6052C17.1269 36.426 17.6729 33.3381 18.7864 30.3611C19.6886 27.9481 20.9452 25.723 22.4775 23.6501C23.335 22.4901 24.2837 21.4178 25.3524 20.4548C26.84 19.1122 29.2745 19.7745 29.8867 21.7723C30.1874 22.7568 29.9834 23.6573 29.3139 24.4377C28.8878 24.9336 28.4278 25.4008 27.9892 25.8859C26.5715 27.4558 25.4885 29.2352 24.622 31.1595C23.7198 33.1626 23.1578 35.2535 22.9465 37.4338C22.6046 40.9638 23.07 44.3847 24.4574 47.6624C25.3112 49.6816 26.4354 51.5379 27.88 53.1902C28.3777 53.7612 28.9362 54.2785 29.4302 54.8532C30.234 55.7894 30.3808 56.8509 29.8581 57.9679C29.3533 59.0455 28.4493 59.5503 27.2839 59.5665C26.5285 59.5754 25.8912 59.2353 25.3488 58.7233C24.162 57.6027 23.0879 56.3855 22.141 55.0501C20.5568 52.8178 19.2858 50.4263 18.4516 47.8181C17.9271 46.1766 17.5208 44.5011 17.3489 42.7808C17.2433 41.7246 17.1574 40.6667 17.0625 39.6105L17.1216 39.6034L17.118 39.6052Z" fill="#D41D86"/>
<path d="M45.7028 39.5766C45.7028 42.5893 43.2844 45.2601 39.9441 45.2905C37.139 45.3156 34.2337 43.112 34.2838 39.4226C34.325 36.392 36.8222 33.893 39.9835 33.8876C43.4724 33.8805 45.7225 36.8341 45.7046 39.5766H45.7028Z" fill="#D41D86"/>
</svg>
