<svg width="249" height="31" viewBox="0 0 249 31" fill="none" xmlns="http://www.w3.org/2000/svg">
<path d="M0.342773 16.1243C0.355428 16.2312 0.368083 16.3382 0.378207 16.4477C0.383268 16.4477 0.38833 16.4477 0.393392 16.4477C0.406047 16.3331 0.421232 16.2185 0.426294 16.1065C0.438949 15.8467 0.433887 15.5844 0.459196 15.3246C0.49463 14.9655 0.547779 14.6064 0.600929 14.2499C0.649017 13.9214 0.689512 13.5877 0.760378 13.2643C0.894517 12.648 1.0489 12.0393 1.19317 11.4256C1.37033 10.6743 1.62849 9.94847 1.90436 9.2303C2.05116 8.84574 2.23338 8.47137 2.40042 8.09446C2.49407 7.88308 2.58771 7.66915 2.68642 7.46032C2.72438 7.37882 2.78513 7.30752 2.82562 7.22857C3.30903 6.32194 3.82281 5.43313 4.45808 4.62072C5.2781 3.57402 6.24492 2.69285 7.36106 1.96958C8.2722 1.37874 9.26685 0.996737 10.3273 0.795546C10.5576 0.752252 10.7955 0.742064 11.0309 0.719144C11.203 0.703863 11.3777 0.680942 11.5498 0.678395C11.7497 0.678395 11.9496 0.698771 12.1496 0.714051C12.3546 0.729331 12.5571 0.736971 12.7595 0.764985C13.5138 0.866854 14.2427 1.07314 14.9362 1.38384C15.6752 1.71491 16.3611 2.14786 17.0039 2.64447C17.6139 3.11561 18.1783 3.63769 18.6971 4.20561C19.2286 4.78881 19.7323 5.39747 20.2461 5.99595C20.2865 6.04434 20.3169 6.10037 20.3599 6.16659C20.6459 5.79731 20.9193 5.43058 21.2078 5.07914C22.0683 4.02989 22.9871 3.03412 24.0804 2.21917C24.7461 1.72255 25.4522 1.30234 26.2444 1.04258C26.6291 0.91524 27.029 0.818466 27.4289 0.747158C27.7351 0.69113 28.0489 0.68349 28.3628 0.67585C28.5703 0.670756 28.7778 0.706411 28.9854 0.714051C29.3296 0.726785 29.6637 0.808279 29.9952 0.884681C31.4404 1.21576 32.6628 1.97213 33.7688 2.9297C34.685 3.72173 35.4418 4.65892 36.0922 5.68525C36.6389 6.54605 37.1097 7.45013 37.5096 8.38733C37.6994 8.83046 37.8639 9.28123 38.0259 9.73455C38.36 10.6666 38.608 11.6217 38.8181 12.5894C38.9244 13.0758 38.9927 13.5699 39.0712 14.0614C39.0965 14.2142 39.137 14.3645 39.1547 14.5173C39.1724 14.665 39.1699 14.8153 39.1876 14.963C39.1977 15.0623 39.2306 15.1591 39.2458 15.2584C39.2509 15.2966 39.2306 15.3399 39.2331 15.3781C39.2407 15.536 39.2534 15.6939 39.266 15.8518C39.266 15.8696 39.2762 15.8874 39.2762 15.9078C39.2838 16.0581 39.2913 16.2058 39.2989 16.356C39.3141 16.626 39.3344 16.8959 39.342 17.1659C39.347 17.3289 39.3268 17.4944 39.3242 17.6574C39.3217 17.8382 39.3318 18.019 39.3242 18.1973C39.3015 18.5921 39.2711 18.9842 39.2382 19.3764C39.1572 20.3442 38.9623 21.2865 38.6333 22.2008C38.5017 22.5675 38.3422 22.9215 38.1752 23.2755C38.0638 23.5149 37.9373 23.7517 37.7854 23.9682C37.4944 24.3858 37.1755 24.7857 36.7958 25.1295C36.5782 25.3281 36.3403 25.4962 36.1125 25.6796C35.8341 25.9062 35.5101 26.0387 35.1887 26.1762C34.9407 26.2832 34.6825 26.3621 34.4294 26.4538C34.394 26.4665 34.3611 26.4869 34.313 26.5124C34.2927 26.5022 34.2548 26.4818 34.2168 26.4589C34.2168 26.4665 34.2194 26.4767 34.2219 26.4844C34.1181 26.5149 34.0143 26.5684 33.908 26.5684C33.6575 26.5684 33.4221 26.6652 33.1715 26.6626C32.9159 26.6626 32.6603 26.6779 32.4047 26.6677C32.0301 26.6524 31.6555 26.6346 31.2835 26.5913C31.0658 26.5658 30.8532 26.4869 30.6381 26.4309C30.5115 26.3978 30.385 26.3723 30.261 26.3341C30.1167 26.2882 29.975 26.2399 29.8358 26.1813C29.6611 26.11 29.489 26.031 29.322 25.947C29.2233 25.8986 29.1322 25.8349 29.0385 25.7764C28.8816 25.6796 28.7222 25.5904 28.5728 25.486C28.4438 25.3969 28.3273 25.2925 28.2058 25.1932C28.1122 25.1168 28.0135 25.0429 27.9274 24.9589C27.6237 24.6609 27.3226 24.3604 27.0214 24.0599C26.867 23.9045 26.7151 23.7492 26.5709 23.5862C26.4797 23.4818 26.4038 23.3621 26.3203 23.2526C26.1279 22.9979 25.9305 22.7458 25.7432 22.4885C25.4724 22.1142 25.2042 21.7398 24.946 21.3578C24.7081 21.0063 24.4828 20.6447 24.2525 20.2856C24.0501 19.9673 23.8526 19.6464 23.6502 19.3306C23.5084 19.109 23.3591 18.8926 23.2224 18.6685C23.1136 18.4927 23.0174 18.3068 22.9137 18.1285C22.6732 17.7211 22.4328 17.3136 22.1923 16.9061C22.0785 16.7126 21.9494 16.5292 21.8608 16.3255C21.7596 16.0912 21.6052 15.8874 21.4786 15.671C21.1547 15.1158 20.8155 14.5708 20.484 14.0207C20.3068 13.7253 20.1372 13.4273 19.9626 13.1293C19.9499 13.109 19.9398 13.0886 19.9272 13.0708C19.8512 12.9689 19.8158 12.9689 19.7525 13.0784C19.6007 13.3433 19.4589 13.6107 19.3096 13.8755C19.0236 14.3874 18.7326 14.8993 18.4466 15.4112C18.2896 15.6913 18.1454 15.9791 17.9885 16.2593C17.8569 16.4961 17.7126 16.7304 17.5759 16.9647C17.457 17.171 17.3279 17.3722 17.2266 17.5861C17.1128 17.8331 16.9482 18.0471 16.8217 18.2839C16.723 18.4698 16.6293 18.6557 16.5205 18.8365C16.3636 19.1014 16.194 19.3586 16.0371 19.6209C15.7663 20.0717 15.4752 20.5097 15.2019 20.9554C15.0829 21.1464 14.9387 21.3196 14.8273 21.5131C14.7995 21.5615 14.7818 21.6176 14.7691 21.6507C14.7109 21.7194 14.6628 21.7729 14.6173 21.8315C14.5439 21.9283 14.4679 22.025 14.3996 22.1269C14.0706 22.6108 13.6833 23.0488 13.3214 23.5072C12.8861 24.0599 12.3824 24.5463 11.8737 25.0251C11.6257 25.2568 11.3397 25.4504 11.0613 25.6465C10.4286 26.0845 9.72495 26.3672 8.98086 26.5455C8.74295 26.6015 8.49239 26.6219 8.24689 26.6397C7.90774 26.6626 7.5686 26.6728 7.22945 26.6754C6.98142 26.6754 6.73086 26.655 6.48282 26.6448C6.45751 26.6448 6.43221 26.6346 6.40943 26.6244C6.35375 26.6015 6.30819 26.5709 6.23732 26.6091C6.20189 26.627 6.13609 26.5786 6.08294 26.5735C5.64002 26.5225 5.21736 26.3825 4.80481 26.2271C4.46314 26.0998 4.13918 25.9368 3.8304 25.7305C3.5191 25.5242 3.23057 25.295 2.9547 25.0454C2.55228 24.6787 2.20554 24.2687 1.90942 23.8077C1.57534 23.2882 1.26657 22.7559 1.06409 22.1727C0.904641 21.7092 0.800873 21.2254 0.661671 20.7542C0.573089 20.4512 0.517408 20.1405 0.484506 19.8272C0.449073 19.5012 0.446542 19.1727 0.428825 18.8442C0.428825 18.806 0.421232 18.7652 0.418702 18.727C0.408578 18.727 0.398454 18.727 0.38833 18.727C0.373145 18.8798 0.36049 19.0326 0.345304 19.1854C0.345304 18.1642 0.345304 17.143 0.345304 16.1243H0.342773ZM32.7084 22.4656C32.8172 22.4554 32.926 22.4478 33.0349 22.4325C33.4398 22.3688 33.8195 22.239 34.1611 22.0047C34.642 21.6736 34.9457 21.2126 35.1558 20.6753C35.419 20.0004 35.5253 19.2975 35.5658 18.5793C35.5861 18.2126 35.6012 17.8433 35.5937 17.4766C35.5835 16.9851 35.5481 16.4936 35.5203 16.002C35.5025 15.6862 35.4848 15.3679 35.4544 15.0547C35.4317 14.8229 35.3912 14.5911 35.3608 14.3594C35.3203 14.0691 35.2899 13.7787 35.2368 13.491C35.171 13.1268 35.0824 12.7651 35.0141 12.401C34.9457 12.0444 34.7939 11.7159 34.7154 11.3619C34.6395 11.0232 34.5129 10.6947 34.4041 10.3636C34.3484 10.1955 34.2776 10.0325 34.2118 9.86952C34.0624 9.50789 33.9283 9.13861 33.7587 8.78462C33.1918 7.59021 32.4933 6.48747 31.5113 5.58593C30.6836 4.82446 29.77 4.24381 28.631 4.08082C28.2641 4.02989 27.9021 4.02479 27.5427 4.07063C26.9049 4.15467 26.3304 4.41189 25.7989 4.77353C24.9384 5.35673 24.2399 6.11056 23.6021 6.92296C23.3692 7.21838 23.1566 7.52908 22.9339 7.83214C22.8985 7.88053 22.8504 7.91619 22.8175 7.96457C22.6454 8.23198 22.4783 8.50193 22.3113 8.77188C22.2936 8.80245 22.286 8.85847 22.3037 8.88394C22.4707 9.13607 22.6479 9.3831 22.8175 9.63267C22.9693 9.85679 23.1136 10.086 23.2604 10.3127C23.4376 10.5877 23.6173 10.8602 23.7919 11.1378C23.8957 11.3033 23.9893 11.474 24.0905 11.642C24.4449 12.238 24.7992 12.8339 25.1561 13.4273C25.6142 14.1862 26.0672 14.9477 26.5329 15.7041C26.9277 16.3458 27.3301 16.9825 27.7376 17.6141C28.3299 18.5309 28.912 19.4579 29.565 20.334C29.8661 20.7364 30.18 21.1235 30.5318 21.48C30.6583 21.6099 30.7849 21.7449 30.9291 21.8519C31.4581 22.2415 32.0453 22.4707 32.7109 22.4682L32.7084 22.4656ZM17.8518 9.8848C17.7885 9.79821 17.7227 9.70908 17.6594 9.61739C16.8799 8.5223 16.0675 7.45013 15.0779 6.53331C14.2376 5.75656 13.3113 5.1428 12.1395 4.99255C11.7421 4.94161 11.3498 4.92888 10.9601 4.9849C10.3374 5.07404 9.78063 5.34145 9.26938 5.70308C9.13778 5.79731 9.00111 5.88899 8.88468 6.00105C8.77079 6.1131 8.62146 6.17422 8.5177 6.30665C8.38103 6.47983 8.20386 6.6199 8.06466 6.79053C7.93052 6.95352 7.78879 7.10887 7.67489 7.28714C7.50785 7.54946 7.32056 7.79904 7.15605 8.0639C6.99154 8.32876 6.83716 8.59871 6.68783 8.87121C6.34615 9.50025 6.0475 10.1497 5.80453 10.822C5.37681 12.0088 5.03007 13.2185 4.8529 14.4714C4.79722 14.8662 4.72635 15.2584 4.67574 15.6531C4.63524 15.9664 4.6074 16.2796 4.58462 16.5929C4.56944 16.8093 4.56691 17.0284 4.56184 17.2448C4.54666 17.8968 4.55172 18.5488 4.67574 19.1931C4.68586 19.244 4.70864 19.2924 4.71876 19.3433C4.7542 19.5674 4.76432 19.7992 4.82506 20.0157C4.89087 20.25 4.97439 20.4817 5.08069 20.7058C5.2781 21.1184 5.51094 21.4928 5.86781 21.7856C6.20442 22.0632 6.56381 22.2873 6.9966 22.3688C7.17124 22.402 7.35093 22.4325 7.5281 22.4402C7.69767 22.4478 7.86978 22.4376 8.03682 22.4096C8.24182 22.3765 8.44683 22.3255 8.64424 22.2619C8.76826 22.2211 8.87962 22.1371 8.99858 22.076C9.10994 22.0199 9.22636 21.9741 9.33266 21.9104C9.83631 21.6074 10.2337 21.1846 10.6057 20.7389C10.8917 20.3951 11.1752 20.0488 11.4409 19.6922C11.818 19.1829 12.1901 18.6685 12.5419 18.1413C13.0936 17.3085 13.6251 16.4655 14.1617 15.6251C14.2477 15.4901 14.3237 15.3475 14.4122 15.2125C14.5337 15.0266 14.6628 14.8458 14.7868 14.6625C14.8805 14.5224 14.9665 14.3772 15.0576 14.2372C15.7688 13.1293 16.4826 12.0241 17.1963 10.9162C17.4165 10.575 17.6367 10.2312 17.8619 9.87971L17.8518 9.8848Z" fill="#F6F6F6"/>
<path d="M168.767 30.3246C168.477 29.8109 168.192 29.2922 167.897 28.781C167.361 27.858 166.794 26.9527 166.173 26.083C166.102 25.9838 166.031 25.8821 165.954 25.7727C165.659 25.844 165.372 25.9202 165.082 25.9838C163.859 26.2508 162.626 26.3576 161.375 26.2813C158.402 26.1008 155.811 25.0353 153.624 23.0035C152.64 22.088 151.844 21.0276 151.228 19.8401C150.603 18.6347 150.17 17.3556 149.957 16.0079C149.748 14.7034 149.71 13.3912 149.827 12.079C149.972 10.4338 150.379 8.85461 151.114 7.37207C152.245 5.08852 153.931 3.32881 156.187 2.12346C157.392 1.4801 158.676 1.08085 160.017 0.851991C161.138 0.661271 162.265 0.638383 163.394 0.719757C164.23 0.780788 165.057 0.918106 165.865 1.1368C167.127 1.47755 168.304 2.01157 169.392 2.74139C170.87 3.73059 172.019 5.01986 172.94 6.52782C173.685 7.75097 174.14 9.07838 174.438 10.4694C174.567 11.072 174.651 11.6798 174.674 12.2952C174.697 12.9004 174.725 13.5082 174.707 14.1134C174.661 15.6315 174.346 17.0937 173.809 18.5152C173.319 19.8121 172.581 20.9564 171.701 22.0092C171.048 22.7899 170.293 23.4663 169.456 24.0486C169.382 24.0995 169.311 24.1529 169.225 24.2165C169.372 24.4097 169.507 24.5852 169.642 24.7607C170.672 26.083 171.623 27.4613 172.497 28.8904C172.767 29.3278 173.008 29.783 173.263 30.2305C173.278 30.2559 173.281 30.2865 173.288 30.317H168.769L168.767 30.3246ZM170.524 13.175C170.527 12.7046 170.473 12.0078 170.336 11.3213C169.975 9.5234 169.22 7.93406 167.892 6.63717C166.994 5.75985 165.962 5.12412 164.754 4.77574C163.424 4.39175 162.071 4.33581 160.716 4.56468C158.501 4.93849 156.767 6.08281 155.523 7.94932C154.687 9.20299 154.206 10.5914 154.046 12.0943C153.919 13.2793 153.944 14.4567 154.153 15.629C154.42 17.1166 155.022 18.4593 155.976 19.6316C157.092 21.0047 158.514 21.9202 160.24 22.3271C161.242 22.5636 162.259 22.6017 163.287 22.4924C164.299 22.383 165.26 22.1058 166.155 21.6227C167.991 20.6284 169.184 19.0823 169.924 17.1624C170.389 15.957 170.532 14.6932 170.527 13.1776L170.524 13.175Z" fill="#F6F6F6"/>
<path d="M63.353 25.8591H59.3428V1.14435C59.4013 1.13926 59.4674 1.12909 59.5335 1.12909C61.0389 1.12909 62.5469 1.12909 64.0523 1.124C64.1845 1.124 64.2583 1.16469 64.3218 1.28421C65.3492 3.14818 66.3816 5.00707 67.414 6.86849C68.2049 8.29254 68.9958 9.71658 69.7841 11.1406C70.6665 12.7325 71.5463 14.3269 72.4287 15.9188C72.4694 15.99 72.5101 16.0637 72.566 16.1629C72.6143 16.0841 72.6449 16.0358 72.6728 15.9875C73.4891 14.5151 74.3029 13.0453 75.1191 11.5729C77.0111 8.1603 78.9056 4.74768 80.795 1.33252C80.8814 1.17486 80.973 1.12146 81.1535 1.12146C82.575 1.12909 83.9965 1.12655 85.418 1.12655C85.5096 1.12655 85.5986 1.12655 85.7028 1.12655V25.8286C85.5248 25.8769 82.0512 25.8922 81.7231 25.8439V6.98801C81.5985 7.06176 81.568 7.15839 81.5222 7.23722C81.1433 7.91364 80.767 8.5926 80.3906 9.27157C78.5979 12.4935 76.8051 15.7154 75.0123 18.9373C74.8445 19.2399 74.6716 19.5374 74.5088 19.8451C74.4453 19.9671 74.3664 20.0205 74.2215 20.018C73.1153 20.0129 72.0091 20.0104 70.9004 20.018C70.7275 20.018 70.6232 19.9748 70.5368 19.8146C68.3498 15.8806 66.1553 11.9493 63.9633 8.0179C63.7955 7.71529 63.6352 7.41014 63.47 7.10498C63.4445 7.05921 63.414 7.01853 63.353 6.98292V25.854V25.8591Z" fill="#F6F6F6"/>
<path d="M141.225 25.8592H137.479V23.3111C137.405 23.3798 137.367 23.4103 137.339 23.4459C136.287 24.8217 134.924 25.7244 133.227 26.1033C132.414 26.2864 131.59 26.3423 130.756 26.2889C129.019 26.177 127.508 25.5388 126.194 24.4173C125.487 23.8121 124.917 23.0925 124.436 22.2965C123.689 21.0606 123.259 19.718 123.071 18.2914C122.829 16.4605 122.941 14.6499 123.546 12.8978C124.337 10.6016 125.756 8.81896 127.976 7.74584C129.286 7.1152 130.682 6.89396 132.126 6.99059C133.751 7.09994 135.213 7.64921 136.459 8.71216C136.726 8.94102 136.955 9.21312 137.199 9.46995C137.278 9.55387 137.347 9.64542 137.436 9.74713C137.522 9.59201 137.459 9.44198 137.469 9.29703C137.482 9.14446 137.472 8.98934 137.472 8.83676C137.472 8.68419 137.472 8.52907 137.472 8.37649C137.472 8.22392 137.472 8.0688 137.472 7.91622C137.472 7.76364 137.472 7.61107 137.472 7.46104C137.629 7.40764 140.93 7.38983 141.22 7.44069C141.271 7.62633 141.281 25.6354 141.225 25.8592ZM137.377 16.6614C137.377 15.8095 137.377 14.9551 137.375 14.1032C137.375 13.9837 137.36 13.854 137.316 13.7446C136.719 12.2926 135.694 11.2805 134.194 10.7872C133.189 10.4566 132.154 10.4261 131.119 10.6194C130.061 10.8152 129.154 11.3009 128.431 12.1121C127.671 12.9665 127.216 13.9684 127.033 15.0949C126.921 15.7713 126.908 16.4529 126.926 17.1394C126.951 18.0396 127.099 18.9144 127.455 19.7409C128.152 21.3556 129.309 22.4364 131.086 22.7415C132.276 22.945 133.441 22.8534 134.557 22.3474C135.763 21.8006 136.691 20.9691 137.248 19.751C137.337 19.5578 137.38 19.3645 137.38 19.1509C137.372 18.3219 137.377 17.4904 137.377 16.6614Z" fill="#F6F6F6"/>
<path d="M215.4 18.083H201.851C201.879 18.2483 201.897 18.3907 201.927 18.528C202.153 19.5858 202.591 20.5369 203.349 21.3252C204.16 22.1669 205.141 22.6857 206.301 22.851C206.553 22.8866 206.805 22.9222 207.056 22.9298C207.911 22.9578 208.76 22.8967 209.597 22.7009C210.652 22.4568 211.56 21.9177 212.399 21.2566C212.562 21.1294 212.714 20.9895 212.89 20.8395C213.592 21.6914 214.288 22.5356 214.995 23.3977C214.784 23.5783 214.596 23.7461 214.398 23.9037C212.824 25.165 211.028 25.8974 209.037 26.1848C207.918 26.345 206.797 26.3653 205.683 26.2102C204.29 26.0144 202.988 25.549 201.82 24.7429C200.363 23.7385 199.303 22.4136 198.637 20.7759C197.988 19.1866 197.795 17.5311 197.902 15.8299C197.96 14.8814 198.113 13.9532 198.423 13.053C199.183 10.8585 200.546 9.15727 202.586 8.02312C203.598 7.46113 204.691 7.13309 205.846 7.03646C206.372 6.99323 206.906 6.97289 207.433 6.99577C208.396 7.03646 209.345 7.20429 210.235 7.58828C211.667 8.20875 212.821 9.16998 213.691 10.472C214.41 11.5476 214.85 12.7352 215.117 13.9939C215.295 14.8382 215.392 15.6901 215.395 16.5547C215.395 16.9768 215.407 17.3989 215.415 17.821C215.415 17.9024 215.405 17.9838 215.4 18.0855V18.083ZM201.838 15.1408H211.557C211.565 15.1052 211.575 15.0848 211.573 15.062C211.57 14.978 211.567 14.8916 211.557 14.8102C211.461 14.0422 211.265 13.3022 210.886 12.6233C210.293 11.5629 209.436 10.828 208.244 10.5177C207.545 10.3346 206.833 10.3118 206.118 10.3982C205.215 10.505 204.422 10.8585 203.733 11.4535C202.891 12.1808 202.375 13.109 202.067 14.1618C201.975 14.4771 201.917 14.8026 201.836 15.1433L201.838 15.1408Z" fill="#F6F6F6"/>
<path d="M106.818 18.0829H93.2535C93.279 18.238 93.2942 18.3754 93.3222 18.5076C93.5892 19.7333 94.1334 20.8064 95.0845 21.6481C95.8041 22.2864 96.6407 22.6755 97.5943 22.8255C98.9802 23.0467 100.338 22.9476 101.663 22.4949C102.462 22.2228 103.176 21.7854 103.814 21.2285C103.964 21.0988 104.114 20.9666 104.285 20.8191C104.987 21.6812 105.683 22.5356 106.385 23.4002C106.306 23.4739 106.248 23.535 106.187 23.5884C104.707 24.8853 102.996 25.7041 101.068 26.0779C99.7457 26.3347 98.4106 26.3983 97.0781 26.2101C95.293 25.9558 93.7011 25.254 92.3533 24.041C90.8352 22.6704 89.907 20.9666 89.4976 18.9704C89.2179 17.615 89.2001 16.2545 89.3959 14.889C89.6502 13.0988 90.3368 11.4891 91.4862 10.0905C92.7017 8.61049 94.2504 7.65688 96.122 7.2195C97.0832 6.99572 98.0521 6.92961 99.0285 6.99572C100.938 7.12287 102.606 7.8298 104.005 9.13942C104.697 9.78786 105.218 10.5635 105.643 11.4077C106.154 12.4249 106.464 13.5056 106.655 14.6245C106.846 15.7358 106.838 16.8572 106.838 17.9787C106.838 18.0015 106.83 18.0244 106.82 18.0778L106.818 18.0829ZM102.968 15.1407C102.962 15.0416 102.962 14.9602 102.955 14.8788C102.879 14.1312 102.693 13.4141 102.355 12.7402C101.816 11.6646 100.984 10.9195 99.8245 10.5711C99.2472 10.3982 98.6522 10.3371 98.0495 10.3549C96.6687 10.3982 95.5168 10.9271 94.6115 11.9697C93.9249 12.7606 93.5358 13.6964 93.3247 14.7135C93.2968 14.8534 93.2764 14.9933 93.2535 15.1433H102.97L102.968 15.1407Z" fill="#F6F6F6"/>
<path d="M190.668 7.42812H194.487C194.497 7.48152 194.515 7.52984 194.518 7.5807C194.523 7.6875 194.525 7.79685 194.525 7.90365C194.525 13.7829 194.525 19.6622 194.525 25.5414C194.525 25.6406 194.525 25.7372 194.525 25.8313C194.327 25.8847 191.047 25.8974 190.703 25.8466C190.688 25.427 190.698 24.9998 190.696 24.5726C190.696 24.1454 190.696 23.7182 190.658 23.2706C190.599 23.3443 190.541 23.4181 190.485 23.4944C190.057 24.0716 189.569 24.5878 188.984 25.0125C188.071 25.6788 187.054 26.0755 185.938 26.228C185.132 26.3399 184.328 26.3425 183.527 26.2179C181.973 25.9763 180.646 25.3151 179.675 24.0437C179.054 23.2325 178.64 22.3246 178.413 21.3278C178.213 20.4479 178.096 19.5579 178.093 18.6577C178.088 14.9832 178.088 11.3112 178.088 7.63664C178.088 7.57052 178.098 7.50187 178.103 7.42558H181.93C181.935 7.51967 181.943 7.60104 181.943 7.68496C181.943 11.0365 181.943 14.3856 181.943 17.7372C181.943 18.4517 181.963 19.1688 182.103 19.8707C182.177 20.2445 182.284 20.6183 182.419 20.9743C182.81 22.0195 183.586 22.6425 184.672 22.8358C186.032 23.0799 187.339 22.9044 188.529 22.1568C189.473 21.5643 190.146 20.7277 190.619 19.7258C190.665 19.6266 190.67 19.502 190.67 19.3901C190.67 15.5096 190.67 11.629 190.67 7.74853V7.42303L190.668 7.42812Z" fill="#F6F6F6"/>
<path d="M217.45 22.5102C218.307 21.76 219.156 21.0175 220.033 20.2445C220.056 20.2902 220.066 20.3182 220.084 20.3436C220.812 21.4167 221.819 22.1161 223.029 22.5306C224.044 22.8789 225.096 22.9832 226.164 22.9247C226.678 22.8967 227.192 22.8611 227.69 22.7162C228.054 22.6119 228.4 22.4721 228.705 22.2407C229.183 21.8745 229.379 21.3684 229.389 20.7937C229.402 20.2089 229.221 19.6875 228.766 19.2909C228.537 19.0925 228.278 18.9476 227.995 18.8382C227.505 18.65 226.988 18.5712 226.475 18.4771C225.252 18.2559 224.021 18.0601 222.803 17.8134C221.77 17.6049 220.796 17.2336 219.944 16.5928C218.818 15.746 218.2 14.6169 218.07 13.2132C217.986 12.3181 218.073 11.4459 218.431 10.6169C218.754 9.87182 219.245 9.24881 219.873 8.73259C221.081 7.7383 222.49 7.25006 224.026 7.06951C224.761 6.98305 225.498 6.94999 226.233 6.99068C228.405 7.10765 230.345 7.81713 231.975 9.28949C232.423 9.69382 232.799 10.1566 233.107 10.6703C233.013 10.8051 230.734 12.5317 230.459 12.6792C230.437 12.6538 230.409 12.6284 230.388 12.5978C229.775 11.662 228.89 11.0975 227.861 10.7288C227.255 10.5126 226.627 10.4109 225.989 10.3753C225.213 10.3321 224.435 10.3321 223.677 10.5406C223.441 10.6067 223.207 10.6906 222.991 10.8C222.314 11.1433 221.961 11.6977 221.953 12.4631C221.948 12.9132 222.035 13.3328 222.35 13.6811C222.536 13.8846 222.759 14.027 223.006 14.1389C223.464 14.3474 223.95 14.4567 224.443 14.5457C225.335 14.7059 226.225 14.8687 227.115 15.034C227.66 15.1332 228.204 15.2298 228.746 15.3417C229.541 15.507 230.297 15.7791 230.988 16.2114C232.133 16.9285 232.868 17.938 233.152 19.2629C233.397 20.3919 233.341 21.5083 232.916 22.5916C232.636 23.3061 232.189 23.9063 231.619 24.4149C230.617 25.3125 229.43 25.8186 228.128 26.0805C227.098 26.2865 226.058 26.3348 225.01 26.2915C223.96 26.2483 222.932 26.0805 221.933 25.7601C220.768 25.3863 219.688 24.8446 218.749 24.0461C218.243 23.6138 217.816 23.1154 217.447 22.5127L217.45 22.5102Z" fill="#F6F6F6"/>
<path d="M111.674 10.6906H108.022V7.42294H111.672C111.672 7.10253 111.672 6.80501 111.672 6.51003C111.672 6.20996 111.672 5.90989 111.672 5.60983C111.672 5.30976 111.672 5.0097 111.672 4.70963C111.672 4.40956 111.672 4.12476 111.672 3.83232C111.672 3.53225 111.672 3.23218 111.672 2.93212V2.02429H115.522C115.539 2.31927 115.524 2.61425 115.527 2.91178C115.529 3.21184 115.527 3.51191 115.527 3.81197C115.527 4.11204 115.527 4.41211 115.527 4.71217V5.58949C115.527 5.88955 115.527 6.18962 115.527 6.48968C115.527 6.78721 115.527 7.08727 115.527 7.41023H121.073C121.129 7.59586 121.139 10.416 121.088 10.6855H115.547C115.537 10.7567 115.524 10.8152 115.524 10.8737C115.524 13.6175 115.524 16.3614 115.529 19.1052C115.529 19.7053 115.56 20.308 115.738 20.8852C115.827 21.1751 115.949 21.465 116.101 21.7269C116.44 22.2991 116.984 22.589 117.619 22.7161C117.897 22.7721 118.181 22.8001 118.464 22.8128C119.288 22.8458 120.106 22.8128 120.918 22.6424C120.963 22.6322 121.009 22.6297 121.055 22.6271C121.068 22.6271 121.083 22.6373 121.108 22.6475V25.8414C120.834 25.9075 120.559 25.9736 120.284 26.0347C119.288 26.261 118.278 26.3271 117.261 26.2686C116.284 26.2127 115.346 25.9965 114.479 25.5286C113.34 24.9158 112.605 23.9596 112.175 22.7619C111.827 21.7905 111.705 20.7784 111.679 19.7511C111.669 19.39 111.672 19.0289 111.672 18.6678C111.672 16.1096 111.672 13.5489 111.672 10.9907C111.672 10.9068 111.672 10.8228 111.672 10.6982L111.674 10.6906Z" fill="#F6F6F6"/>
<path d="M247.934 22.6017V25.8312C247.65 25.8973 247.367 25.966 247.085 26.0296C246.111 26.2483 245.125 26.3169 244.13 26.2635C243.027 26.205 241.974 25.9584 241.02 25.3684C240.428 25.0022 239.952 24.5216 239.571 23.9393C239.1 23.2196 238.833 22.4237 238.681 21.5845C238.548 20.8572 238.49 20.1223 238.49 19.3849C238.49 16.58 238.49 13.7752 238.49 10.9703C238.49 10.8864 238.49 10.805 238.49 10.688C237.857 10.683 237.246 10.688 236.634 10.688C236.028 10.688 235.423 10.688 234.803 10.688V7.42292H238.477V2.06242C238.658 2.00139 242.014 1.98867 242.332 2.04462V7.42292H247.922V10.683H242.35C242.343 10.7593 242.33 10.8177 242.33 10.8762C242.33 13.4802 242.33 16.0867 242.34 18.6907C242.34 19.2043 242.365 19.7206 242.414 20.2317C242.449 20.636 242.551 21.0327 242.716 21.4091C242.971 21.9939 243.405 22.3779 244.001 22.589C244.402 22.7314 244.819 22.7924 245.244 22.8077C246.098 22.8356 246.948 22.795 247.79 22.6271C247.825 22.6195 247.863 22.6144 247.927 22.6042L247.934 22.6017Z" fill="#F6F6F6"/>
</svg>
