<svg width="257" height="37" viewBox="0 0 257 37" fill="none" xmlns="http://www.w3.org/2000/svg">
<path d="M17.2373 0.393677C17.5878 0.457099 17.9216 0.503831 18.2487 0.580605C19.4738 0.877688 20.6921 1.20815 21.9239 1.48187C22.3611 1.57867 22.7717 1.74891 23.199 1.85906C23.6563 1.97923 24.1069 2.11943 24.5576 2.25628C25.0015 2.3898 25.4388 2.53334 25.8827 2.66018C26.34 2.79037 26.8174 2.85713 27.2547 3.03738C28.8836 3.70164 30.576 4.22905 32.0547 5.22377C33.5201 6.20848 34.6784 7.43687 35.326 9.10587C35.6197 9.8636 35.83 10.6414 35.9301 11.4425C36.0103 12.0834 36.0336 12.731 36.0703 13.3785C36.097 13.8826 36.1404 14.3899 36.1137 14.894C36.087 15.4014 36.037 15.9187 35.9068 16.4061C35.8133 16.7499 35.8033 17.1104 35.6598 17.4409C35.5096 17.7847 35.3894 18.1419 35.2225 18.4757C34.5515 19.8109 33.4567 20.5953 31.998 20.9091C31.0567 21.1127 30.1487 20.9591 29.2541 20.6888C28.8068 20.5552 28.3729 20.375 27.9356 20.2181C27.7754 20.1614 27.722 20.0545 27.722 19.8776C27.742 16.2325 27.7587 12.5874 27.7654 8.93897C27.7654 8.29474 27.7253 7.66052 27.3848 7.07637C27.0611 6.51558 26.5804 6.2185 25.9462 6.18846C25.6357 6.17177 25.352 6.29193 25.1717 6.56231C24.9481 6.89278 24.8079 7.24327 24.8379 7.66386C24.8613 8.00433 24.7946 8.35149 24.7912 8.6953C24.7879 17.1605 24.7879 25.6257 24.7879 34.0909C24.7879 34.665 24.7879 35.2391 24.7879 35.8433C24.5108 35.7498 24.2838 35.6631 24.0502 35.5963C23.7231 35.4995 23.3692 35.4594 23.0721 35.3126C22.6282 35.0923 22.1442 35.0188 21.6869 34.8519C21.1995 34.675 20.6988 34.5381 20.2048 34.3846C19.5706 34.1843 18.9364 33.984 18.3021 33.7871C18.0551 33.7103 17.8114 33.6202 17.5578 33.5801C17.2507 33.5301 17.2373 33.3398 17.2406 33.0961C17.2406 30.6861 17.2406 28.2727 17.2406 25.8627C17.2406 17.788 17.2406 9.71005 17.2406 1.63542C17.2406 1.24487 17.2406 0.854322 17.2406 0.400353L17.2373 0.393677Z" fill="#F6F6F6"/>
<path d="M61.8736 28.7234H58.0449C58.0382 28.6533 58.0248 28.5966 58.0248 28.5398C58.0082 28.0157 57.9848 27.4917 57.9814 26.9676C57.9814 26.6205 58.0215 26.2733 58.0248 25.9261C58.0315 25.3253 58.0349 24.7245 58.0248 24.1236C58.0182 23.6363 57.9881 23.1456 57.9848 22.6582C57.9848 22.3378 58.0248 22.0173 58.0248 21.6969C58.0248 18.5658 58.0248 15.4381 58.0248 12.3071C58.0248 11.7496 58.0248 11.1888 58.0248 10.6314C58.0248 9.65336 58.0282 8.67199 58.0115 7.69395C58.0081 7.39687 58.1984 7.45362 58.362 7.45362C59.8541 7.45028 61.3462 7.44694 62.8382 7.45362C64.3403 7.45695 65.8391 7.44026 67.3412 7.487C68.5596 7.52371 69.6578 7.93095 70.509 8.83889C71.2367 9.61664 71.6773 10.558 71.9377 11.5794C72.178 12.5207 72.3115 13.4787 72.2414 14.4501C72.198 15.0543 72.0879 15.6518 71.9977 16.2526C71.8676 17.1171 71.507 17.8916 71.0297 18.6126C70.3922 19.5773 69.5176 20.2582 68.406 20.5753C67.892 20.7222 67.3379 20.7589 66.8005 20.7723C65.7123 20.8023 64.6207 20.7823 63.5125 20.7823V18.4423C63.6928 18.4423 63.873 18.4423 64.0533 18.4423C64.6641 18.4423 65.2783 18.4323 65.8892 18.4423C66.8639 18.4557 67.5248 17.9784 67.9487 17.1439C68.2425 16.5664 68.356 15.9388 68.3727 15.2913C68.3894 14.7271 68.4261 14.163 68.4227 13.5989C68.4161 12.6809 68.3393 11.773 67.8619 10.9518C67.4213 10.1941 66.7904 9.77019 65.8758 9.78688C64.5773 9.80691 63.2755 9.7969 61.977 9.7969C61.9537 9.7969 61.9303 9.80691 61.8702 9.82026V28.7267L61.8736 28.7234Z" fill="#F6F6F6"/>
<path d="M235.941 18.0484C236.735 18.262 237.386 18.5858 237.853 19.2701C238.404 20.0779 238.758 20.9491 238.998 21.8837C239.125 22.3811 239.309 22.8651 239.459 23.3591C239.709 24.1936 239.946 25.0348 240.203 25.8693C240.43 26.607 240.684 27.3347 240.918 28.0724C240.981 28.276 241.014 28.4863 241.075 28.74C240.968 28.74 240.858 28.74 240.747 28.74C240.016 28.74 239.289 28.7367 238.558 28.74C238.361 28.74 238.261 28.6933 238.204 28.473C237.933 27.3848 237.64 26.3033 237.349 25.2184C237.116 24.3338 236.885 23.4493 236.638 22.568C236.418 21.7869 236.194 21.0025 235.664 20.3549C235.163 19.7441 234.559 19.3335 233.734 19.2901C233.42 19.2734 233.113 19.1733 232.8 19.1299C232.669 19.1132 232.529 19.1499 232.396 19.1499C231.191 19.1366 229.986 19.1165 228.781 19.1032C228.48 19.0998 228.45 19.1332 228.45 19.427C228.45 20.9224 228.45 22.4178 228.454 23.9132C228.454 25.4087 228.453 26.9008 228.464 28.3962C228.464 28.6232 228.46 28.7367 228.153 28.7233C227.435 28.6933 226.714 28.7233 225.993 28.7333C225.937 28.7333 225.877 28.72 225.84 28.7133V7.31668C228.14 7.31668 230.4 7.30332 232.659 7.32335C233.43 7.33003 234.198 7.44018 234.973 7.4769C235.697 7.51028 236.331 7.81738 236.985 8.06773C236.992 8.06773 236.999 8.07774 237.009 8.08108C237.219 8.16453 237.463 8.20125 237.63 8.33477C238.715 9.1893 239.562 10.2141 239.773 11.6227C239.869 12.2736 239.936 12.9512 239.876 13.6021C239.726 15.1743 238.998 16.4495 237.606 17.2639C237.136 17.541 236.592 17.6912 236.084 17.9048C236.031 17.9282 235.994 17.9883 235.937 18.0484H235.941ZM228.484 16.8968C229.892 16.8968 231.267 16.9101 232.639 16.8901C233.183 16.8801 233.738 16.84 234.272 16.7332C235.236 16.5429 236.111 16.1624 236.695 15.3145C236.989 14.8873 237.186 14.4233 237.242 13.8892C237.313 13.2249 237.309 12.5674 237.136 11.9265C236.845 10.8483 236.084 10.2007 235.056 9.83353C234.295 9.55982 233.497 9.5498 232.709 9.5231C231.671 9.48638 230.63 9.51309 229.592 9.51309C229.225 9.51309 228.857 9.51309 228.48 9.51309V16.8968H228.484Z" fill="#F6F6F6"/>
<path d="M26.2334 28.1959C26.2234 28.0224 26.2067 27.8655 26.2067 27.7086C26.2034 26.4802 26.2067 25.2551 26.1934 24.0268C26.1934 23.7898 26.2534 23.6763 26.4971 23.6162C27.2382 23.4259 27.9759 23.2256 28.7069 22.9987C29.054 22.8918 29.4079 22.8685 29.7583 22.805C30.3559 22.7016 30.9467 22.568 31.5475 22.4813C32.7258 22.311 33.9075 22.1942 35.1025 22.2576C35.7968 22.2943 36.4911 22.3344 37.1821 22.4078C37.8997 22.4846 38.6208 22.5814 39.3318 22.7116C39.8425 22.805 40.3465 22.9553 40.8472 23.0955C41.3646 23.239 41.882 23.3925 42.396 23.5561C43.087 23.7797 43.7913 23.9867 44.4256 24.3572C44.8194 24.5875 45.2467 24.7978 45.5605 25.1149C45.8375 25.3987 46.0712 25.8026 46.1546 26.1864C46.2481 26.6371 46.1146 27.1044 45.7574 27.4783C44.6492 28.6432 43.2239 29.2441 41.7451 29.7615C41.0375 30.0085 40.3298 30.2622 39.6222 30.5158C38.0399 31.08 36.4544 31.6474 34.8722 32.2149C32.2218 33.1629 29.5748 34.1142 26.9244 35.0622C26.7007 35.1423 26.4804 35.2224 26.2267 35.3126C26.2201 35.2057 26.2101 35.1256 26.2101 35.0489C26.2101 33.8305 26.2101 32.6121 26.2101 31.3937C26.2101 30.9631 26.21 30.9665 26.6073 30.8263C27.9091 30.3623 29.2109 29.895 30.5161 29.4343C31.384 29.1272 32.2552 28.8335 33.1197 28.5264C33.7306 28.3128 34.3348 28.0858 34.9456 27.8655C35.6132 27.6251 36.2808 27.3881 36.9518 27.1578C37.4057 27.0009 37.8764 26.8874 38.317 26.6938C38.6508 26.547 38.9746 26.3467 39.2516 26.1097C39.5621 25.846 39.4252 25.4521 39.0414 25.3019C37.9632 24.888 36.855 24.908 35.73 25.0282C34.6919 25.1417 33.7373 25.5489 32.7659 25.8793C31.2538 26.3934 29.7483 26.9342 28.2429 27.4682C27.6254 27.6885 27.0145 27.9189 26.397 28.1459C26.3436 28.1659 26.2902 28.1726 26.2334 28.1859V28.1959Z" fill="#F6F6F6"/>
<path d="M147.2 14.8573C146.903 14.8573 146.629 14.8573 146.358 14.8573C145.504 14.8674 144.646 14.8507 143.795 14.9108C143.481 14.9308 143.161 15.0977 142.877 15.2579C142.266 15.6017 142.076 16.2426 141.912 16.8535C141.755 17.4376 141.659 18.0485 141.645 18.6527C141.598 20.6922 141.588 22.735 141.595 24.7779C141.595 25.2285 141.729 25.6792 142.059 26.0297C142.299 26.2867 142.597 26.4102 142.947 26.4135C143.728 26.4135 144.506 26.4202 145.287 26.4135C145.501 26.4135 145.581 26.4703 145.577 26.6939C145.564 27.3615 145.574 28.0291 145.574 28.7234C145.474 28.7301 145.377 28.7468 145.277 28.7468C143.985 28.7401 142.69 28.7868 141.405 28.7067C140.627 28.66 139.919 28.2895 139.325 27.7587C138.517 27.0411 138.074 26.1198 137.877 25.0883C137.78 24.5943 137.76 24.0769 137.756 23.5729C137.746 22.221 137.73 20.8691 137.776 19.5205C137.83 17.9283 138.13 16.3862 138.988 15.0009C139.349 14.4167 139.846 13.9527 140.367 13.5088C140.38 13.4988 140.383 13.4754 140.397 13.4721C140.784 13.3052 141.165 13.1149 141.565 12.978C141.976 12.8412 142.403 12.7177 142.83 12.6576C143.364 12.5842 143.912 12.5608 144.452 12.5575C146.482 12.5474 148.511 12.5508 150.541 12.5508C150.691 12.5508 150.945 12.4874 150.975 12.5441C151.052 12.6943 151.048 12.8946 151.048 13.0715C151.048 18.1386 151.048 23.2057 151.048 28.2728C151.048 28.4097 151.048 28.5498 151.048 28.7167H147.206V14.864L147.2 14.8573Z" fill="#F6F6F6"/>
<path d="M94.3488 12.5441C94.3488 12.721 94.3488 12.8612 94.3488 13.0014C94.3488 18.1452 94.3454 23.2858 94.3488 28.4296C94.3488 28.6733 94.2787 28.7434 94.0417 28.7401C92.9935 28.7301 91.9454 28.7334 90.8973 28.7334C90.7804 28.7334 90.6636 28.72 90.5234 28.7134V14.8974C90.4333 14.8807 90.3632 14.8573 90.2931 14.8573C89.3217 14.8673 88.347 14.8573 87.3757 14.894C86.4143 14.9307 85.7701 15.4481 85.4062 16.316C85.266 16.6465 85.1459 16.987 85.0357 17.3308C84.999 17.4443 85.0357 17.5778 85.0257 17.6979C84.8555 19.2868 84.9189 20.8857 84.9055 22.478C84.8989 23.2691 84.9189 24.0635 84.9289 24.858C84.9356 25.569 85.3729 26.1798 86.0238 26.3834C86.0839 26.4035 86.1506 26.4101 86.2174 26.4101C87.0318 26.4101 87.843 26.4101 88.6575 26.4001C88.8477 26.4001 88.9111 26.4502 88.9011 26.6371C88.8844 27.0043 88.8778 27.3715 88.8778 27.7353C88.8778 27.9957 88.8811 28.2527 88.8978 28.5131C88.9078 28.6967 88.8177 28.7401 88.6575 28.7401C87.3423 28.7301 86.0204 28.7735 84.7086 28.6933C84.0176 28.6499 83.36 28.3595 82.7993 27.8989C81.9681 27.2113 81.4941 26.3234 81.2671 25.2986C81.157 24.8012 81.0835 24.2872 81.0802 23.7831C81.0668 22.1442 81.0635 20.5052 81.1269 18.8696C81.1503 18.2287 81.3239 17.5845 81.4874 16.9569C81.6143 16.4729 81.8145 16.0056 82.0081 15.5416C82.2986 14.844 82.8026 14.2965 83.32 13.7624C83.4435 13.6356 83.6171 13.5455 83.7806 13.462C84.7386 12.988 85.7367 12.6108 86.8182 12.5941C89.0547 12.5574 91.2911 12.5574 93.5309 12.5441C93.788 12.5441 94.0483 12.5441 94.3488 12.5441Z" fill="#F6F6F6"/>
<path d="M98.7392 36.5577C98.9628 36.0103 99.1831 35.4829 99.3934 34.9521C99.7807 33.9774 100.161 32.9994 100.542 32.0214C100.959 30.9499 101.38 29.875 101.783 28.7969C101.83 28.67 101.834 28.4964 101.79 28.3696C101.289 26.8608 100.775 25.3587 100.261 23.8533C99.9542 22.952 99.6438 22.0507 99.33 21.1528C98.7125 19.3803 98.0883 17.6112 97.4774 15.8387C97.1136 14.7906 96.7664 13.7391 96.4093 12.691C96.3926 12.6476 96.3926 12.5975 96.3926 12.5908C96.6463 12.5441 96.9233 12.4072 97.1503 12.4673C97.7879 12.6342 98.4221 12.4974 99.0563 12.5408C99.4001 12.5641 99.7439 12.5508 100.088 12.5474C100.281 12.5474 100.375 12.6209 100.438 12.8145C100.782 13.8426 101.149 14.864 101.503 15.8854C101.717 16.4996 101.93 17.1172 102.141 17.7314C102.745 19.4905 103.349 21.253 103.95 23.0154C103.956 23.0321 103.967 23.0455 103.993 23.0989C104.05 22.9754 104.103 22.8752 104.143 22.7717C104.467 21.9306 104.791 21.0861 105.115 20.2449C105.539 19.15 105.966 18.0585 106.387 16.9636C106.64 16.2994 106.874 15.6318 107.128 14.9675C107.421 14.2031 107.725 13.4387 108.039 12.681C108.066 12.6142 108.199 12.5541 108.286 12.5541C109.007 12.5441 109.735 12.5975 110.446 12.5241C110.853 12.4807 111.233 12.6175 111.684 12.5374C111.587 12.7944 111.51 13.0081 111.427 13.2184C110.172 16.3561 108.913 19.4972 107.655 22.6349C107.068 24.1036 106.49 25.5757 105.899 27.0444C105.455 28.1526 104.995 29.2542 104.551 30.3624C104.123 31.4339 103.713 32.5087 103.289 33.5802C102.915 34.5249 102.535 35.4662 102.144 36.4042C102.107 36.491 101.987 36.6045 101.907 36.6045C100.876 36.6111 99.8441 36.5978 98.8126 36.5878C98.7893 36.5878 98.7659 36.5711 98.7359 36.5577H98.7392Z" fill="#F6F6F6"/>
<path d="M190.64 28.7134C190.554 28.7267 190.494 28.7401 190.437 28.7401C189.289 28.7401 188.14 28.7401 186.992 28.73C186.892 28.73 186.795 28.6599 186.698 28.6232L186.778 28.5798C186.798 28.3328 186.838 28.0858 186.838 27.8388C186.845 26.0363 186.845 24.2337 186.845 22.4312C186.845 19.5839 186.845 16.7366 186.845 13.8926C186.845 13.452 186.845 13.0147 186.845 12.5507C186.942 12.5507 187.049 12.5507 187.156 12.5507C189.402 12.5507 191.652 12.5274 193.898 12.5641C195.03 12.5808 196.121 12.8278 197.13 13.3919C197.881 13.8125 198.471 14.3733 198.935 15.0976C199.156 15.4414 199.222 15.8186 199.356 16.1825C199.496 16.5697 199.676 16.9469 199.763 17.3441C199.88 17.8748 199.98 18.4223 199.994 18.9664C200.047 20.9158 200.064 22.8652 200.084 24.8179C200.097 26.0363 200.084 27.2546 200.097 28.473C200.097 28.67 200.057 28.7501 199.837 28.7467C198.755 28.7334 197.674 28.7434 196.592 28.7401C196.278 28.7401 196.272 28.73 196.272 28.4163C196.272 25.5689 196.282 22.7216 196.265 19.8776C196.262 19.1399 196.208 18.3989 196.131 17.6646C196.065 17.0036 195.918 16.3527 195.504 15.7986C195.143 15.3146 194.693 14.9775 194.069 14.9541C192.99 14.914 191.916 14.8973 190.837 14.8673C190.68 14.864 190.637 14.9274 190.637 15.0743C190.637 15.4681 190.627 15.862 190.627 16.2559C190.634 20.3216 190.637 24.3873 190.644 28.453C190.644 28.5364 190.644 28.6199 190.644 28.7234L190.64 28.7134Z" fill="#F6F6F6"/>
<path d="M177.258 12.5306C178.744 12.5573 179.909 12.7543 181.02 13.2383C181.998 13.6656 182.716 14.3599 183.247 15.2678C183.437 15.5949 183.67 15.9054 183.801 16.2559C183.948 16.6531 184.011 17.0803 184.094 17.5009C184.375 18.8929 184.425 20.2982 184.355 21.7135C184.305 22.7283 184.148 23.7297 183.834 24.6943C183.6 25.4153 183.26 26.0863 182.763 26.6938C181.878 27.7787 180.713 28.3161 179.391 28.5597C178.663 28.6933 177.916 28.7467 177.175 28.76C176.477 28.77 175.786 28.6432 175.098 28.493C174.097 28.276 173.222 27.8387 172.488 27.1478C171.837 26.5336 171.38 25.7892 171.15 24.9146C171.043 24.5041 170.893 24.1035 170.786 23.6896C170.709 23.3925 170.649 23.0854 170.619 22.7783C170.569 22.2275 170.532 21.6734 170.519 21.1227C170.502 20.4684 170.475 19.8108 170.529 19.1599C170.592 18.3588 170.726 17.5644 170.983 16.8C171.09 16.4828 171.18 16.1591 171.31 15.852C171.61 15.1376 172.054 14.5334 172.642 14.0094C173.5 13.2383 174.521 12.8811 175.623 12.7042C176.253 12.6041 176.898 12.574 177.258 12.5407V12.5306ZM177.408 26.4334C177.655 26.4101 177.902 26.3967 178.146 26.36C179.124 26.2031 179.758 25.6323 180.085 24.711C180.419 23.7664 180.466 22.7716 180.509 21.7869C180.576 20.2815 180.576 18.7761 180.279 17.284C179.992 15.8386 179.404 15.191 178.273 14.9607C177.766 14.8572 177.218 14.8639 176.701 14.9307C175.753 15.0475 175.172 15.6617 174.841 16.5229C174.511 17.3908 174.411 18.3021 174.391 19.2233C174.374 19.9477 174.341 20.6754 174.367 21.3997C174.394 22.1107 174.351 22.8251 174.498 23.5327C174.634 24.1836 174.795 24.8178 175.152 25.3886C175.225 25.5055 175.302 25.6256 175.402 25.7191C175.966 26.2465 176.637 26.4735 177.408 26.4368V26.4334Z" fill="#F6F6F6"/>
<path d="M113.816 28.7301V26.4202C113.92 26.4202 114.013 26.4202 114.11 26.4202C115.702 26.4202 117.294 26.4268 118.89 26.4068C119.361 26.4001 119.831 26.3534 120.289 26.1765C121.18 25.8327 121.761 24.8446 121.811 23.9133C121.841 23.3592 121.884 22.7984 121.851 22.2477C121.824 21.807 121.737 21.3597 121.601 20.9425C121.4 20.3417 120.97 19.891 120.385 19.644C120.052 19.5038 119.671 19.4537 119.307 19.407C118.59 19.3135 117.862 19.2868 117.151 19.16C115.732 18.9097 114.637 18.1519 113.896 16.9169C113.539 16.326 113.245 15.6951 113.165 15.0075C113.082 14.2932 113.002 13.5688 113.032 12.8545C113.055 12.2503 113.162 11.6261 113.362 11.0553C113.639 10.2709 114.037 9.51984 114.661 8.93902C115.332 8.31815 116.099 7.85083 117.024 7.69061C117.395 7.62719 117.782 7.60048 118.129 7.4703C118.423 7.36015 118.683 7.48031 118.953 7.47698C120.723 7.45695 122.492 7.47364 124.261 7.47698C124.328 7.47698 124.394 7.48365 124.488 7.49033V9.79689C124.204 9.79689 123.957 9.79689 123.707 9.79689C122.315 9.79689 120.923 9.79689 119.531 9.79689C118.947 9.79689 118.379 9.85698 117.865 10.1707C117.458 10.4178 117.158 10.7415 116.991 11.1955C116.73 11.9232 116.58 12.6709 116.644 13.4353C116.707 14.2064 116.851 14.9675 117.461 15.5349C117.852 15.8954 118.316 16.0924 118.847 16.1391C119.661 16.2092 120.486 16.2392 121.293 16.3594C121.814 16.4362 122.338 16.5964 122.822 16.8067C123.49 17.0971 124.077 17.5144 124.505 18.1352C125.009 18.8629 125.336 19.6574 125.483 20.5152C125.593 21.1628 125.686 21.8237 125.68 22.478C125.663 23.7898 125.516 25.085 124.892 26.2833C124.177 27.6586 123.009 28.3729 121.524 28.6066C120.869 28.71 120.199 28.7234 119.538 28.7301C117.728 28.7468 115.916 28.7401 114.107 28.7401C114.017 28.7401 113.926 28.7334 113.826 28.7267L113.816 28.7301Z" fill="#F6F6F6"/>
<path d="M204.905 7.31675C205.813 7.31675 206.684 7.31675 207.555 7.32343C207.619 7.32343 207.722 7.38685 207.742 7.44026C208.016 8.17796 208.289 8.919 208.543 9.66337C208.793 10.3944 209.014 11.1354 209.261 11.8665C209.488 12.5474 209.725 13.2217 209.958 13.8993C210.242 14.7205 210.523 15.5449 210.813 16.3661C210.983 16.8501 211.177 17.3308 211.344 17.8181C211.534 18.3889 211.714 18.9597 211.884 19.5372C212.055 20.128 212.322 20.6821 212.495 21.2696C212.602 21.6301 212.756 21.9806 212.849 22.3445C213.023 23.0087 213.343 23.6162 213.547 24.2672C213.757 24.9348 213.991 25.5923 214.214 26.2533C214.228 26.29 214.251 26.3267 214.288 26.4068C214.335 26.3134 214.375 26.2533 214.395 26.1898C215.172 23.9133 215.95 21.6401 216.721 19.3603C216.888 18.8696 217.002 18.3589 217.169 17.8682C217.379 17.244 217.622 16.6298 217.843 16.0089C218.023 15.5015 218.2 14.9942 218.374 14.4868C218.797 13.235 219.221 11.9833 219.645 10.7315C219.892 9.99717 220.143 9.26281 220.386 8.52845C220.503 8.17462 220.603 7.81412 220.744 7.4703C220.777 7.39019 220.947 7.33011 221.057 7.33011C221.895 7.32009 222.733 7.32343 223.648 7.32343C223.471 7.76738 223.3 8.17462 223.147 8.5852C222.987 9.00912 222.843 9.43973 222.693 9.86699C222.539 10.3076 222.386 10.7482 222.229 11.1855C222.075 11.6161 221.919 12.0467 221.762 12.4773C221.605 12.9079 221.451 13.3385 221.298 13.7691C221.141 14.1997 220.984 14.6303 220.827 15.0576C220.667 15.4949 220.513 15.9355 220.353 16.3728C220.196 16.8034 220.053 17.2373 219.882 17.6612C219.719 18.0685 219.669 18.5291 219.372 18.8729C219.352 19.0198 219.358 19.18 219.308 19.3169C218.978 20.2415 218.624 21.1595 218.3 22.0841C218.06 22.7717 217.793 23.4493 217.552 24.137C217.309 24.8413 217.048 25.5423 216.795 26.2466C216.541 26.9509 216.291 27.6552 216.037 28.3629C215.903 28.7367 215.903 28.7401 215.506 28.7401C214.618 28.7401 213.727 28.7401 212.839 28.7401C212.679 28.7401 212.562 28.7201 212.495 28.5331C211.464 25.6257 210.419 22.7217 209.384 19.8176C208.022 16.0056 206.667 12.1902 205.305 8.3749C205.182 8.03109 205.048 7.69395 204.901 7.31342L204.905 7.31675Z" fill="#F6F6F6"/>
<path d="M246.722 26.5203H257V28.7201H243.474C243.474 28.2461 243.474 27.7854 243.474 27.3281C243.474 27.1879 243.468 27.0477 243.441 26.9109C243.381 26.6171 243.411 26.3701 243.685 26.1798C243.865 26.053 244.018 25.8861 244.182 25.7392C244.539 25.4154 244.906 25.1017 245.257 24.7679C246.108 23.9634 246.956 23.1523 247.804 22.3411C248.254 21.9105 248.715 21.4866 249.159 21.046C249.603 20.6054 250.034 20.1581 250.457 19.7008C250.855 19.2735 251.265 18.8496 251.616 18.3856C252.133 17.7046 252.717 17.0737 253.158 16.3394C253.295 16.1124 253.375 15.8487 253.495 15.6117C253.562 15.4815 253.679 15.3714 253.735 15.2378C253.979 14.6604 254.156 14.0662 254.139 13.432C254.129 12.9446 254.196 12.4439 254.103 11.9733C253.909 10.9952 253.275 10.3377 252.427 9.81692C251.756 9.40301 251.025 9.29285 250.284 9.19271C248.985 9.01246 247.79 9.36963 246.665 9.98382C246.091 10.2976 245.554 10.6781 244.976 11.0453C244.623 10.4812 244.245 9.88034 243.845 9.24278C244.102 9.03249 244.389 8.78214 244.693 8.55849C245.334 8.09451 246.045 7.74402 246.789 7.50702C247.487 7.28671 248.218 7.15653 248.945 7.04304C249.913 6.89283 250.891 6.96293 251.843 7.16321C252.424 7.28671 252.971 7.54374 253.545 7.71398C254.183 7.90091 254.707 8.28144 255.171 8.71204C255.772 9.26949 256.209 9.96379 256.483 10.7482C256.8 11.6595 256.863 12.6042 256.796 13.5488C256.659 15.4849 255.798 17.1272 254.607 18.6226C253.342 20.2048 251.916 21.6368 250.441 23.0187C249.887 23.5395 249.346 24.0735 248.795 24.5976C248.124 25.2318 247.443 25.8594 246.729 26.5236L246.722 26.5203Z" fill="#F6F6F6"/>
<path d="M15.7823 20.3917C15.789 20.4818 15.7957 20.5519 15.7957 20.6254C15.7957 21.9105 15.7957 23.1957 15.799 24.4808C15.799 24.651 15.7523 24.7311 15.5887 24.7879C14.7142 25.0916 13.8429 25.4054 12.9684 25.7158C11.3328 26.3 9.6938 26.8775 8.06486 27.4817C7.71103 27.6118 7.38056 27.8221 7.06679 28.0358C6.74634 28.2527 6.87986 28.6533 7.17027 28.8202C7.66429 29.1006 8.20505 29.1974 8.75248 29.2174C9.69714 29.2541 10.6451 29.2575 11.5564 28.9504C12.3542 28.6833 13.1386 28.3762 13.9331 28.0958C14.5372 27.8855 15.1448 27.6886 15.7756 27.4783C15.7823 27.5751 15.7923 27.6452 15.7923 27.7153C15.7923 28.8269 15.7857 29.9351 15.799 31.0466C15.799 31.2603 15.6955 31.3504 15.5253 31.3771C14.7976 31.4839 14.0666 31.6208 13.3322 31.6675C12.2107 31.7376 11.0824 31.7877 9.95751 31.7643C9.14637 31.7476 8.33857 31.6174 7.53077 31.5073C6.89321 31.4205 6.25899 31.3003 5.62811 31.1735C5.2843 31.1034 4.9505 30.9832 4.61669 30.8831C3.96245 30.6828 3.31153 30.4859 2.65728 30.2789C1.96298 30.0619 1.33877 29.7114 0.791336 29.2341C0.307325 28.8135 -0.00978353 28.2894 0.000230493 27.6352C0.00690651 27.1779 0.223878 26.7873 0.554341 26.4736C1.11846 25.9395 1.7627 25.5089 2.47703 25.2185C4.02253 24.5943 5.58806 24.0168 7.1469 23.4193C7.45734 23.2991 7.76777 23.1656 8.08822 23.0822C8.50213 22.9753 8.87599 22.7751 9.28323 22.6549C9.71383 22.5247 10.1411 22.3778 10.5684 22.2276C10.9923 22.0774 11.4129 21.9105 11.8368 21.7536C12.2607 21.6001 12.688 21.4499 13.1119 21.2997C13.5358 21.1495 13.9598 20.9926 14.387 20.849C14.8443 20.6921 15.3017 20.5486 15.779 20.3917H15.7823Z" fill="#F6F6F6"/>
<path d="M154.062 9.81024H157.901V12.5441H161.954C161.97 12.6409 161.99 12.7043 161.99 12.7677C161.99 13.3786 161.99 13.9861 161.99 14.5969C161.99 14.7905 161.934 14.8707 161.713 14.8673C160.522 14.854 159.333 14.8606 158.142 14.8606C158.061 14.8606 157.978 14.874 157.901 14.884C157.901 18.0117 157.898 21.1127 157.908 24.2171C157.908 24.611 157.955 25.0149 158.048 25.3987C158.215 26.0864 158.619 26.3834 159.33 26.4001C159.784 26.4102 160.234 26.4068 160.688 26.4102C160.772 26.4102 160.852 26.4102 160.955 26.4102C160.969 26.5403 160.986 26.6438 160.986 26.7506C160.986 27.3448 160.982 27.9356 160.986 28.5298C160.986 28.6533 160.972 28.7401 160.815 28.7401C159.767 28.7334 158.709 28.8235 157.678 28.6967C156.533 28.5565 155.595 27.9523 154.964 26.9376C154.496 26.1865 154.233 25.3687 154.126 24.5008C154.086 24.1737 154.069 23.8399 154.069 23.5128C154.066 19.0632 154.069 14.6136 154.069 10.1641C154.069 10.0606 154.069 9.95711 154.069 9.81358L154.062 9.81024Z" fill="#F6F6F6"/>
<path d="M132.176 12.544C132.547 12.544 132.857 12.544 133.164 12.544C134.102 12.544 135.043 12.5507 135.981 12.5373C136.215 12.5373 136.288 12.6141 136.285 12.8377C136.275 13.4119 136.272 13.9893 136.282 14.5668C136.285 14.7838 136.212 14.8572 135.995 14.8572C134.803 14.8505 133.615 14.8606 132.423 14.8539C132.219 14.8539 132.169 14.9106 132.173 15.1076C132.186 18.2019 132.189 21.2929 132.209 24.3872C132.209 24.7744 132.283 25.1683 132.383 25.5422C132.533 26.093 132.917 26.3733 133.488 26.3934C133.992 26.4134 134.493 26.4134 134.997 26.4067C135.187 26.4067 135.27 26.4501 135.267 26.6571C135.26 27.2813 135.267 27.9088 135.274 28.5364C135.274 28.6899 135.224 28.74 135.073 28.74C134.052 28.73 133.021 28.8034 132.009 28.6999C130.948 28.5898 130.05 28.0657 129.409 27.1811C128.885 26.4635 128.574 25.6523 128.461 24.7744C128.411 24.3772 128.381 23.9733 128.381 23.5728C128.374 19.0731 128.381 14.5735 128.374 10.0772C128.374 9.8402 128.464 9.78345 128.684 9.78679C129.749 9.7968 130.814 9.79347 131.879 9.79347C131.966 9.79347 132.056 9.78345 132.186 9.77344V12.5507L132.176 12.544Z" fill="#F6F6F6"/>
<path d="M78.349 28.7234H74.5303V7.477C74.6538 7.47032 74.7773 7.45697 74.9008 7.45697C76.0157 7.45697 77.1273 7.45697 78.2421 7.46365C78.2822 7.46365 78.3523 7.55711 78.3556 7.61052C78.3723 7.7841 78.3623 7.96101 78.3623 8.13459C78.3623 14.9608 78.3623 21.787 78.3556 28.6133C78.3556 28.6366 78.3556 28.6633 78.349 28.7234Z" fill="#F6F6F6"/>
<path d="M164.24 28.7134V12.5341H168.032C168.042 12.7544 168.062 12.9914 168.062 13.2318C168.062 18.3256 168.062 23.416 168.062 28.5098C168.062 28.6534 168.055 28.7435 167.868 28.7435C166.71 28.7368 165.555 28.7368 164.397 28.7335C164.346 28.7335 164.296 28.7201 164.236 28.7134H164.24Z" fill="#F6F6F6"/>
<path d="M168.065 7.48033C168.065 8.49508 168.065 9.48647 168.065 10.4779C168.065 10.6848 167.918 10.6815 167.772 10.6815C166.773 10.6815 165.779 10.6815 164.781 10.6815C164.227 10.6815 164.223 10.6815 164.227 10.114C164.227 9.57993 164.237 9.04585 164.23 8.51177C164.227 8.20801 164.19 7.90425 164.187 7.60049C164.187 7.5571 164.297 7.47699 164.357 7.47365C165.111 7.4603 165.866 7.4603 166.617 7.45362C167 7.45362 167.384 7.43693 167.768 7.43359C167.865 7.43359 167.958 7.4603 168.065 7.47699V7.48033Z" fill="#F6F6F6"/>
<path d="M204.139 28.72C203.048 28.7133 202.37 27.7753 202.464 26.8707C202.591 25.649 203.205 25.1583 204.486 25.1984C205.284 25.2217 205.952 25.9094 205.999 26.8707C206.052 28.0056 205.131 28.8368 204.139 28.72ZM205.685 26.9909C205.685 25.9528 205.167 25.4921 203.989 25.5155C203.368 25.5288 202.744 26.1363 202.757 26.9608C202.774 27.9021 203.355 28.4729 204.35 28.4663C205.147 28.4596 205.808 27.7519 205.681 26.9909H205.685Z" fill="#F6F6F6"/>
<path d="M44.9331 34.0609C44.9631 35.1324 44.2054 35.8334 43.1539 35.8301C42.0724 35.8301 41.3781 35.0123 41.4082 34.0175C41.4415 32.9794 42.1292 32.3118 43.0805 32.2885C44.2154 32.2618 44.9765 32.9627 44.9331 34.0643V34.0609ZM43.1907 35.533C44.1887 35.6131 44.6994 34.7953 44.6827 34.0442C44.6627 33.1664 44.0085 32.5822 43.2174 32.5722C42.2594 32.5588 41.7019 33.3099 41.6986 34.0943C41.6952 34.7452 42.266 35.6064 43.1907 35.533Z" fill="#F6F6F6"/>
<path d="M203.525 26.8908C203.525 26.6238 203.531 26.3567 203.525 26.093C203.521 25.9628 203.561 25.9061 203.695 25.9161C204.019 25.9361 204.342 25.9361 204.663 25.9728C204.99 26.0096 205.137 26.5103 204.89 26.804C204.746 26.9743 204.73 27.0644 204.866 27.2546C204.987 27.4215 205.017 27.6552 205.077 27.8622C205.087 27.9022 205.067 27.9823 205.043 27.989C204.987 28.009 204.887 28.0224 204.863 27.989C204.783 27.8922 204.726 27.7754 204.67 27.6585C204.629 27.5784 204.609 27.4883 204.579 27.4015C204.523 27.2346 204.142 27.051 203.979 27.1311C203.928 27.1545 203.888 27.2413 203.882 27.3047C203.868 27.4783 203.888 27.6552 203.872 27.8288C203.865 27.8955 203.788 27.9523 203.745 28.0157C203.678 27.959 203.558 27.9022 203.555 27.8421C203.535 27.5284 203.545 27.2112 203.545 26.8941H203.528L203.525 26.8908ZM203.882 26.2432C203.848 26.8641 203.852 26.8708 204.119 26.8674C204.506 26.8608 204.656 26.7406 204.626 26.4569C204.603 26.2199 204.366 26.1498 203.878 26.2432H203.882Z" fill="#F6F6F6"/>
<path d="M43.6852 34.0141C43.7954 34.3112 43.9022 34.5882 43.9923 34.8686C44.0157 34.9387 43.9756 35.0289 43.9656 35.1123C43.8688 35.0622 43.7553 35.0322 43.6819 34.9588C43.6251 34.8987 43.6151 34.7919 43.5918 34.7051C43.4482 34.2111 43.4249 34.1977 42.8607 34.2544C42.8607 34.4547 42.8607 34.6617 42.8607 34.8653C42.8607 34.9888 42.844 35.099 42.6705 35.0956C42.4936 35.0956 42.5002 34.9788 42.5002 34.8586C42.5002 34.3079 42.5002 33.7604 42.4835 33.2096C42.4802 33.0594 42.5336 33.0261 42.6738 33.0294C42.9075 33.0394 43.1411 33.0294 43.3781 33.0361C43.6051 33.0361 43.8221 33.0861 43.9155 33.3231C44.0057 33.5468 43.9122 33.8105 43.7086 33.9841C43.6919 34.0008 43.6819 34.0241 43.6852 34.0174V34.0141ZM42.8274 33.2664C42.8674 33.5435 42.8307 33.8138 42.9442 33.9106C43.0443 33.9974 43.3347 33.9307 43.495 33.8439C43.5684 33.8038 43.5884 33.45 43.545 33.4333C43.3447 33.3465 43.1178 33.3265 42.8274 33.2664Z" fill="#F6F6F6"/>
</svg>
