<svg width="80" height="80" viewBox="0 0 80 80" fill="none" xmlns="http://www.w3.org/2000/svg">
<g clip-path="url(#clip0_159_90422)">
<path d="M40.2172 80H39.0762C37.6998 79.6498 36.2964 79.3804 34.9501 78.9371C27.4419 76.4645 21.1536 72.1575 16.0487 66.1257C12.2567 61.6449 9.53062 56.5567 7.61139 51.022C5.25615 44.231 4.20974 37.2073 4.05734 30.0498C3.95139 25.0727 4.05245 20.0914 4.00029 15.1127C3.97503 12.7102 5.58865 10.8841 7.58286 10.1967C8.63905 9.83265 9.71481 9.90041 10.8036 9.93061C14.0537 10.0212 17.2907 9.83347 20.5106 9.37633C22.7208 9.06204 24.8796 8.56571 26.9105 7.59102C30.2706 5.97878 33.237 3.79429 35.9998 1.32C36.6379 0.748571 37.3591 0.39102 38.1684 0.174694C38.4145 0.108571 38.6647 0.0579592 38.9133 0C39.3753 0 39.8366 0 40.2987 0C42.0631 0.243265 43.3605 1.3551 44.7305 2.3551C46.4296 3.59592 48.1362 4.83102 49.8949 5.98286C51.7954 7.22694 53.8026 8.29633 56.0381 8.8098C60.3655 9.80326 64.7614 10.0522 69.1866 9.92326C69.7139 9.90775 70.2469 9.89796 70.7693 9.95755C73.1637 10.231 75.5352 12.1665 75.4741 15.1927C75.4358 17.0694 75.4724 18.9469 75.4659 20.8245C75.4488 25.978 75.5792 31.1347 75.0242 36.2743C74.5874 40.3208 73.8776 44.3118 72.7317 48.2196C70.581 55.5518 67.1411 62.1739 61.8707 67.7624C56.7707 73.1714 50.674 77.0008 43.5618 79.1747C42.4649 79.5102 41.3329 79.7282 40.2172 80ZM39.5905 5.05143C39.5253 5.10286 39.4519 5.16163 39.3786 5.22041C37.932 6.36816 36.5165 7.55673 35.034 8.65633C30.3317 12.1445 25.0719 14.151 19.2173 14.6163C16.0723 14.8661 12.9306 15.018 9.77837 14.9208C9.69036 14.9184 9.60153 14.938 9.49232 14.9502C9.49232 15.1388 9.49232 15.3004 9.49232 15.462C9.49232 19.4751 9.48743 23.4882 9.49395 27.5012C9.50373 33.0792 10.0049 38.6049 11.2942 44.0424C12.6601 49.8041 14.8279 55.2253 18.2312 60.0988C23.0525 67.0033 29.3986 71.8824 37.4569 74.4416C38.5473 74.7878 39.6133 75.0784 40.8227 74.7371C46.7369 73.0678 51.872 70.0637 56.2858 65.8163C61.5896 60.7135 65.0409 54.4882 67.203 47.5004C69.0579 41.5078 69.8459 35.3486 69.9413 29.098C70.0114 24.5012 69.9657 19.902 69.9706 15.3037C69.9706 15.1845 69.9576 15.0653 69.9494 14.9306C69.8622 14.9249 69.797 14.9159 69.7319 14.9176C65.7744 15.0416 61.8316 14.8857 57.9133 14.2833C55.8604 13.9682 53.8328 13.5486 51.8899 12.7812C48.5567 11.4653 45.5381 9.60163 42.6751 7.47347C41.6303 6.69714 40.6263 5.86612 39.5913 5.0498L39.5905 5.05143Z" fill="#D41D86"/>
<path d="M35.4029 44.2261C36.5015 43.2261 37.5667 42.258 38.6302 41.289C44.5859 35.8596 50.5409 30.4286 56.4982 25C57.86 23.7592 59.6456 23.5796 61.0579 24.5298C62.696 25.6318 62.903 27.7665 61.4605 29.1225C59.8461 30.6392 58.1933 32.1151 56.5561 33.6074C50.6003 39.0367 44.643 44.4661 38.6889 49.8971C38.5291 50.0425 38.3808 50.2041 38.248 50.3739C36.9701 52.0122 34.2816 52.1461 32.8187 50.6645C31.932 49.7674 31.0233 48.8898 30.0935 48.0376C26.8467 45.0629 23.586 42.1029 20.3327 39.1363C19.1224 38.0327 18.8071 36.7837 19.4134 35.5314C20.0328 34.2547 21.5722 33.5045 23.0367 33.7518C23.7971 33.8808 24.4401 34.2196 25.0081 34.7388C28.2973 37.7478 31.5914 40.751 34.8846 43.7559C35.0444 43.902 35.2057 44.0465 35.4046 44.2269L35.4029 44.2261Z" fill="#D41D86"/>
</g>
<defs>
<clipPath id="clip0_159_90422">
<rect width="71.4754" height="80" fill="white" transform="translate(4)"/>
</clipPath>
</defs>
</svg>
