<svg width="100" height="100" viewBox="0 0 100 100" fill="none" xmlns="http://www.w3.org/2000/svg">
<g clip-path="url(#clip0_159_90422)">
<path d="M50.2715 100H48.8453C47.1247 99.5622 45.3705 99.2255 43.6876 98.6714C34.3023 95.5806 26.442 90.1969 20.0609 82.6571C15.3208 77.0561 11.9133 70.6959 9.51424 63.7776C6.57019 55.2888 5.26217 46.5092 5.07167 37.5622C4.93924 31.3408 5.06556 25.1143 5.00037 18.8908C4.96879 15.8878 6.98582 13.6051 9.47858 12.7459C10.7988 12.2908 12.1435 12.3755 13.5045 12.4133C17.5671 12.5265 21.6134 12.2918 25.6383 11.7204C28.401 11.3276 31.0995 10.7071 33.6381 9.48878C37.8382 7.47347 41.5463 4.74286 44.9997 1.65C45.7974 0.935714 46.6989 0.488776 47.7105 0.218367C48.0181 0.135714 48.3309 0.072449 48.6416 0C49.2192 0 49.7958 0 50.3734 0C52.5789 0.304082 54.2006 1.69388 55.9131 2.94388C58.0371 4.4949 60.1702 6.03878 62.3686 7.47857C64.7442 9.03367 67.2533 10.3704 70.0476 11.0122C75.4569 12.2541 80.9518 12.5653 86.4833 12.4041C87.1424 12.3847 87.8086 12.3724 88.4616 12.4469C91.4546 12.7888 94.419 15.2082 94.3426 18.9908C94.2947 21.3367 94.3406 23.6837 94.3324 26.0306C94.311 32.4725 94.474 38.9184 93.7803 45.3429C93.2342 50.401 92.347 55.3898 90.9147 60.2745C88.2263 69.4398 83.9264 77.7174 77.3384 84.7031C70.9634 91.4643 63.3425 96.251 54.4522 98.9684C53.0811 99.3878 51.6661 99.6602 50.2715 100ZM49.4881 6.31429C49.4066 6.37857 49.3149 6.45204 49.2232 6.52551C47.4151 7.9602 45.6456 9.44592 43.7925 10.8204C37.9146 15.1806 31.3399 17.6888 24.0216 18.2704C20.0904 18.5827 16.1633 18.7724 12.223 18.651C12.1129 18.648 12.0019 18.6724 11.8654 18.6878C11.8654 18.9235 11.8654 19.1255 11.8654 19.3276C11.8654 24.3439 11.8593 29.3602 11.8674 34.3765C11.8797 41.349 12.5062 48.2561 14.1178 55.0531C15.8251 62.2551 18.5348 69.0316 22.7889 75.1235C28.8156 83.7541 36.7482 89.8531 46.8211 93.052C48.1842 93.4847 49.5166 93.848 51.0284 93.4214C58.4211 91.3347 64.84 87.5796 70.3572 82.2704C76.987 75.8918 81.3012 68.1102 84.0038 59.3755C86.3223 51.8847 87.3074 44.1857 87.4266 36.3725C87.5142 30.6265 87.4572 24.8776 87.4633 19.1296C87.4633 18.9806 87.447 18.8316 87.4368 18.6633C87.3278 18.6561 87.2463 18.6449 87.1648 18.6469C82.218 18.802 77.2895 18.6071 72.3916 17.8541C69.8255 17.4602 67.291 16.9357 64.8624 15.9765C60.6959 14.3316 56.9226 12.002 53.3439 9.34184C52.0379 8.37143 50.7829 7.33265 49.4891 6.31225L49.4881 6.31429Z" fill="#E268AE"/>
<path d="M44.2527 55.2827C45.6259 54.0327 46.9574 52.8225 48.2868 51.6112C55.7314 44.8245 63.1751 38.0357 70.6218 31.25C72.3241 29.699 74.556 29.4745 76.3214 30.6623C78.369 32.0398 78.6278 34.7082 76.8247 36.4031C74.8066 38.299 72.7407 40.1439 70.6941 42.0092C63.2495 48.7959 55.8027 55.5827 48.3601 62.3714C48.1604 62.5531 47.975 62.7551 47.809 62.9674C46.2117 65.0153 42.851 65.1827 41.0224 63.3306C39.914 62.2092 38.7782 61.1123 37.6159 60.047C33.5573 56.3286 29.4815 52.6286 25.4149 48.9204C23.9021 47.5408 23.5078 45.9796 24.2658 44.4143C25.04 42.8184 26.9643 41.8806 28.7949 42.1898C29.7454 42.351 30.5491 42.7745 31.2592 43.4235C35.3706 47.1847 39.4882 50.9388 43.6048 54.6949C43.8045 54.8776 44.0062 55.0582 44.2547 55.2837L44.2527 55.2827Z" fill="#E268AE"/>
</g>
<defs>
<clipPath id="clip0_159_90422">
<rect width="89.3443" height="100" fill="white" transform="translate(5)"/>
</clipPath>
</defs>
</svg>
