<svg width="100" height="100" viewBox="0 0 100 100" fill="none" xmlns="http://www.w3.org/2000/svg">
<g clip-path="url(#clip0_159_90425)">
<path d="M34.337 27.8548C34.1673 27.6583 34.0601 27.5065 33.9351 27.3725C31.5054 24.9428 29.0758 22.5132 26.6461 20.0746C26.2174 19.6458 25.7618 19.2438 25.467 18.699C25.0561 17.9218 24.8685 17.1268 25.0561 16.2246C25.333 14.8758 26.1548 13.9826 27.3071 13.3662C28.647 12.6606 30.4246 12.9732 31.5322 14.1076C32.622 15.2331 33.7564 16.3229 34.8641 17.4395C35.7305 18.3059 36.5881 19.1903 37.4545 20.0567C38.3299 20.9321 39.2232 21.8075 40.1075 22.6829C41.0007 23.5761 41.8761 24.4694 42.7694 25.3626C43.5376 26.1398 44.279 26.9437 45.0829 27.6762C45.8332 28.364 46.7086 28.8463 47.6823 29.1769C48.7989 29.561 49.9333 29.6235 51.0588 29.4895C52.2379 29.3466 53.3366 28.9089 54.3192 28.2032C55.0427 27.6851 55.6412 27.0509 56.2575 26.4346C57.3563 25.3448 58.455 24.2461 59.5537 23.1563C60.4023 22.3077 61.2598 21.4502 62.1084 20.5927C63.0195 19.6815 63.9306 18.7794 64.8328 17.8772C65.7171 16.9928 66.5925 16.0907 67.4858 15.2153C68.0396 14.6704 68.6113 14.1255 69.2008 13.6163C69.6385 13.2412 70.1834 13.0804 70.7551 13.0357C71.5144 12.9732 72.2558 13.0179 72.9346 13.4198C73.158 13.5538 73.3723 13.7146 73.5778 13.8754C74.1495 14.3309 74.6229 14.8758 74.873 15.5547C75.132 16.2425 75.2214 16.9571 75.0249 17.7164C74.8105 18.556 74.337 19.1992 73.7475 19.7887C72.6309 20.9053 71.5144 22.0397 70.3978 23.1563C68.9864 24.5587 67.5662 25.9611 66.1548 27.3635C66.0119 27.5065 65.8958 27.6673 65.7529 27.837C66.1102 28.2032 66.4496 28.5516 66.789 28.891C68.6917 30.7936 70.6032 32.6873 72.5059 34.59C73.1222 35.2063 73.7386 35.8316 74.346 36.4569C75.1053 37.234 76.0342 37.7074 77.0793 38.0112C78.0351 38.2881 79.0177 38.2791 79.9735 38.1183C81.2598 37.895 82.3764 37.2519 83.3053 36.3229C86.5747 33.0625 89.8261 29.8021 93.0865 26.5417C93.5331 26.0951 93.9797 25.6664 94.3996 25.2019C95.6323 23.8441 97.8565 23.8888 99.0892 25.2644C100.072 26.372 100.259 27.694 99.6698 28.8642C99.509 29.1769 99.2768 29.4716 99.0356 29.7217C98.1245 30.6686 97.1955 31.5976 96.2665 32.5176C95.4 33.3752 94.5246 34.2237 93.6671 35.0902C92.5952 36.1621 91.5322 37.243 90.4603 38.3149C89.576 39.1992 88.6827 40.0746 87.7984 40.9589C87.6019 41.1554 87.3875 41.343 87.2178 41.5663C87.1195 41.6914 87.057 41.87 87.0392 42.0308C87.0124 42.2809 87.0392 42.531 87.0392 42.7811C87.0392 56.2872 87.0392 69.7843 87.0392 83.2903C87.0392 84.13 86.8962 84.9428 86.3513 85.6306C85.8154 86.3095 85.1276 86.7293 84.2701 86.8455C83.3589 86.9705 82.5193 86.774 81.7957 86.2023C81.1526 85.6932 80.7149 85.0232 80.6256 84.1925C80.5541 83.5672 80.5541 82.9419 80.5541 82.3167C80.5541 76.3497 80.5541 70.3828 80.5541 64.4158C80.5541 64.0764 80.4916 63.7369 80.4648 63.3975C80.4291 62.8615 79.6251 62.2541 79.116 62.2899C78.6872 62.3166 78.2584 62.2184 77.8297 62.4506C77.258 62.7633 77.0079 63.2367 76.9543 63.8441C76.9364 64.0942 76.9543 64.3443 76.9543 64.5944C76.9543 70.749 76.9543 76.9035 76.9543 83.0581C76.9543 83.3082 76.9543 83.5583 76.9454 83.8084C76.9275 84.916 76.3915 85.7557 75.4983 86.3452C74.1763 87.2296 72.3808 87.0241 71.2553 85.72C70.7462 85.1215 70.505 84.389 70.4693 83.6029C70.4514 83.1295 70.4693 82.665 70.4693 82.1916C70.4693 71.4993 70.4693 60.807 70.4693 50.1148C70.4693 47.4975 70.4693 44.8714 70.4782 42.2541C70.4782 41.87 70.371 41.5842 70.0852 41.3073C68.8257 40.0746 67.593 38.8062 66.3424 37.5645C65.199 36.4301 64.0467 35.3046 62.9123 34.1702C62.4925 33.7503 62.0905 33.3126 61.6796 32.8928C61.5278 32.7409 61.358 32.607 61.1705 32.4462C60.6792 32.7856 60.3129 33.2054 59.9467 33.6253C59.8306 33.7593 59.8306 34.0094 59.8306 34.197C59.8306 37.4037 59.8306 40.6016 59.8306 43.8084C59.8306 45.6932 59.8127 47.5779 59.8127 49.4538C59.8127 60.6016 59.8216 71.7494 59.8395 82.8883C59.8395 84.7195 58.7587 86.2648 56.9721 86.7383C55.9449 87.0152 54.9177 86.8991 53.9887 86.2916C52.7828 85.5056 52.1754 84.4069 52.1843 82.9598C52.1843 75.3761 52.1843 67.7923 52.1843 60.2086C52.1843 59.8066 52.22 59.4046 52.0324 59.0116C51.7109 58.3506 51.2553 57.9308 50.496 57.9129C50.2281 57.9129 49.9601 57.9129 49.6921 57.9129C48.8078 57.8772 47.9949 58.7526 48.0039 59.6369C48.0039 60.2979 48.0039 60.9589 48.0039 61.611C48.0039 68.3819 48.0039 75.1438 48.0039 81.9147C48.0039 82.2899 48.0039 82.665 48.0039 83.0491C47.9413 84.5677 47.2982 85.7289 45.9047 86.4346C44.4308 87.176 43.0374 86.9884 41.7779 86.0147C40.9739 85.3984 40.4737 84.5498 40.4112 83.5047C40.3844 83.0938 40.3665 82.6918 40.3665 82.2809C40.3665 72.9821 40.3665 63.6923 40.3665 54.3935C40.3665 53.0089 40.3665 51.6333 40.3665 50.2488C40.3665 44.8624 40.3665 39.485 40.3665 34.0987C40.3665 33.8129 40.2683 33.5985 40.0539 33.402C39.6966 33.0804 39.3661 32.732 38.9998 32.3658C38.7497 32.5891 38.5353 32.7588 38.3388 32.9553C36.4094 34.9026 34.48 36.8499 32.5505 38.7972C31.7109 39.6369 30.8623 40.4765 29.9958 41.2983C29.7368 41.5484 29.6207 41.8164 29.6207 42.1648C29.6207 43.7995 29.6207 45.4341 29.6207 47.0598C29.6207 47.8548 29.5939 48.6498 29.5939 49.4538C29.5939 50.5167 29.6117 51.5886 29.6207 52.6516C29.6207 53.6074 29.6207 54.5632 29.6207 55.5279C29.6207 64.3711 29.6207 73.2054 29.6207 82.0487C29.6207 82.5489 29.6474 83.0581 29.6207 83.5583C29.5671 84.3354 29.3527 85.059 28.8435 85.6842C27.7627 87.0152 25.7618 87.1849 24.538 86.2827C23.6984 85.6664 23.1803 84.8803 23.1713 83.8084C23.1713 83.3528 23.1713 82.8973 23.1713 82.4417C23.1713 76.2872 23.1713 70.1326 23.1713 63.9781C23.1713 63.2367 22.8676 62.5846 22.1352 62.3524C21.0007 61.9951 19.5537 62.2988 19.5805 63.9781C19.6073 66.2559 19.5805 68.5337 19.5805 70.8115C19.5805 74.9562 19.5894 79.1009 19.5805 83.2456C19.5805 84.0764 19.4197 84.8803 18.8927 85.577C18.4371 86.1844 17.8475 86.5864 17.1329 86.7383C15.409 87.1313 13.8547 86.3095 13.2741 84.6659C13.1222 84.2282 13.0686 83.7459 13.0686 83.2814C13.0597 73.4198 13.0597 63.5583 13.0597 53.7057C13.0597 49.8557 13.0597 46.0147 13.0597 42.1648C13.0597 41.8432 12.9704 41.611 12.7381 41.3787C10.5943 39.2438 8.45049 37.1 6.31561 34.9562C4.57376 33.2144 2.83191 31.4636 1.08113 29.7217C0.35759 29.1054 -0.0354431 28.3193 0.000287174 27.3903C0.0360174 26.3899 0.563038 25.6217 1.29551 24.9428C2.22449 24.0764 3.95741 23.987 4.8864 24.6212C5.37769 24.9607 5.81538 25.3984 6.24415 25.8271C6.94089 26.506 7.61083 27.2028 8.2897 27.8906C9.20976 28.8196 10.1387 29.7485 11.0677 30.6775C11.961 31.5708 12.8632 32.4551 13.7564 33.3484C14.7837 34.3756 15.802 35.4028 16.8203 36.4301C17.2669 36.8767 17.7761 37.2251 18.321 37.5377C19.6251 38.2791 21.0454 38.3506 22.4657 38.1451C23.6805 37.9665 24.7435 37.3769 25.6278 36.5284C26.9766 35.2421 28.2808 33.9022 29.6028 32.5891C30.8891 31.3028 32.1575 30.0076 33.4438 28.7213C33.7207 28.4444 34.0065 28.1853 34.337 27.8638V27.8548Z" fill="#E268AE"/>
<path d="M49.9959 13.0179C54.096 12.8839 57.5172 16.448 57.4725 20.4944C57.4278 24.5945 54.1585 27.9085 49.987 27.8995C45.8512 27.8906 42.5998 24.5766 42.5551 20.4855C42.5105 16.4123 45.9495 12.8928 49.9959 13.0179Z" fill="#E268AE"/>
<path d="M21.2408 24.2104C24.7513 24.0942 27.574 27.0777 27.574 30.4721C27.574 34.0183 24.6441 36.841 21.1872 36.7963C17.8286 36.7517 14.9434 34.0094 14.9434 30.4542C14.9434 27.0688 17.766 24.1032 21.2408 24.2104Z" fill="#E268AE"/>
<path d="M78.7142 36.7874C75.2394 36.8499 72.3185 33.9111 72.39 30.3292C72.4525 27.0688 75.2305 24.0853 78.9107 24.1925C82.2068 24.2818 85.0563 27.0688 85.0295 30.5525C84.9938 34.1076 82.0639 36.8499 78.7142 36.7963V36.7874Z" fill="#E268AE"/>
</g>
<defs>
<clipPath id="clip0_159_90425">
<rect width="100" height="73.9169" fill="white" transform="translate(0 13)"/>
</clipPath>
</defs>
</svg>
