<svg width="80" height="80" viewBox="0 0 80 80" fill="none" xmlns="http://www.w3.org/2000/svg">
<g clip-path="url(#clip0_159_90425)">
<path d="M27.4692 21.884C27.3335 21.7268 27.2477 21.6053 27.1477 21.4981C25.204 19.5544 23.2602 17.6107 21.3165 15.6598C20.9735 15.3168 20.609 14.9952 20.3732 14.5593C20.0445 13.9376 19.8944 13.3016 20.0445 12.5798C20.266 11.5008 20.9235 10.7862 21.8453 10.2931C22.9172 9.72856 24.3393 9.97867 25.2254 10.8862C26.0972 11.7866 27.0048 12.6584 27.8909 13.5517C28.584 14.2449 29.2701 14.9523 29.9632 15.6455C30.6635 16.3458 31.3781 17.0461 32.0856 17.7464C32.8002 18.461 33.5005 19.1756 34.2151 19.8902C34.8297 20.5119 35.4228 21.1551 36.0659 21.7411C36.6662 22.2913 37.3665 22.6772 38.1454 22.9416C39.0387 23.2489 39.9462 23.2989 40.8466 23.1917C41.7899 23.0774 42.6689 22.7272 43.455 22.1627C44.0338 21.7482 44.5126 21.2408 45.0056 20.7478C45.8846 19.876 46.7636 18.997 47.6425 18.1252C48.3214 17.4463 49.0074 16.7603 49.6863 16.0743C50.4152 15.3454 51.1441 14.6236 51.8659 13.9019C52.5733 13.1944 53.2736 12.4726 53.9882 11.7723C54.4313 11.3364 54.8886 10.9005 55.3603 10.4932C55.7104 10.1931 56.1463 10.0644 56.6037 10.0287C57.2111 9.97867 57.8042 10.0144 58.3473 10.336C58.526 10.4432 58.6975 10.5718 58.8618 10.7004C59.3192 11.0649 59.6979 11.5008 59.898 12.0439C60.1052 12.5941 60.1767 13.1658 60.0195 13.7732C59.848 14.445 59.4692 14.9595 58.9976 15.4311C58.1044 16.3244 57.2111 17.2319 56.3178 18.1252C55.1888 19.2471 54.0525 20.369 52.9235 21.491C52.8091 21.6053 52.7162 21.7339 52.6019 21.8697C52.8877 22.1627 53.1593 22.4414 53.4308 22.7129C54.9529 24.235 56.4822 25.75 58.0043 27.2721C58.4974 27.7652 58.9905 28.2654 59.4764 28.7656C60.0838 29.3873 60.827 29.7661 61.6631 30.009C62.4277 30.2306 63.2138 30.2234 63.9784 30.0948C65.0074 29.9162 65.9007 29.4016 66.6439 28.6584C69.2593 26.0501 71.8605 23.4418 74.4688 20.8335C74.8261 20.4762 75.1834 20.1332 75.5193 19.7616C76.5054 18.6754 78.2848 18.7111 79.271 19.8116C80.057 20.6977 80.2071 21.7554 79.7354 22.6915C79.6068 22.9416 79.421 23.1774 79.2281 23.3775C78.4992 24.135 77.756 24.8782 77.0128 25.6142C76.3196 26.3003 75.6193 26.9791 74.9333 27.6723C74.0758 28.5298 73.2254 29.3945 72.3679 30.252C71.6604 30.9595 70.9458 31.6598 70.2383 32.3672C70.0811 32.5245 69.9096 32.6745 69.7739 32.8532C69.6952 32.9532 69.6452 33.0961 69.6309 33.2248C69.6095 33.4249 69.6309 33.6249 69.6309 33.825C69.6309 44.6299 69.6309 55.4275 69.6309 66.2324C69.6309 66.9041 69.5166 67.5544 69.0807 68.1046C68.6519 68.6477 68.1017 68.9836 67.4157 69.0765C66.6868 69.1765 66.015 69.0193 65.4362 68.562C64.9217 68.1547 64.5715 67.6187 64.5001 66.9541C64.4429 66.4539 64.4429 65.9537 64.4429 65.4535C64.4429 60.6799 64.4429 55.9063 64.4429 51.1328C64.4429 50.8612 64.3929 50.5897 64.3714 50.3181C64.3429 49.8894 63.6997 49.4034 63.2924 49.432C62.9494 49.4534 62.6064 49.3748 62.2634 49.5606C61.806 49.8107 61.6059 50.1895 61.563 50.6754C61.5488 50.8755 61.563 51.0756 61.563 51.2757C61.563 56.1993 61.563 61.1229 61.563 66.0466C61.563 66.2467 61.563 66.4467 61.5559 66.6468C61.5416 67.5329 61.1128 68.2047 60.3982 68.6763C59.3406 69.3838 57.9043 69.2194 57.0039 68.1761C56.5965 67.6973 56.4036 67.1113 56.375 66.4825C56.3607 66.1037 56.375 65.7321 56.375 65.3534C56.375 56.7996 56.375 48.2458 56.375 39.6919C56.375 37.5982 56.375 35.4972 56.3822 33.4034C56.3822 33.0961 56.2964 32.8675 56.0677 32.6459C55.0601 31.6598 54.074 30.645 53.0735 29.6517C52.1588 28.7442 51.237 27.8438 50.3295 26.9362C49.9936 26.6004 49.672 26.2502 49.3433 25.9144C49.2218 25.7929 49.086 25.6857 48.936 25.5571C48.5429 25.8286 48.25 26.1645 47.957 26.5003C47.8641 26.6075 47.8641 26.8076 47.8641 26.9577C47.8641 29.5231 47.8641 32.0814 47.8641 34.6468C47.8641 36.1547 47.8498 37.6625 47.8498 39.1631C47.8498 48.0814 47.8569 56.9997 47.8712 65.9108C47.8712 67.3757 47.0065 68.612 45.5773 68.9907C44.7555 69.2123 43.9337 69.1194 43.1906 68.6334C42.2258 68.0046 41.7399 67.1256 41.747 65.968C41.747 59.901 41.747 53.834 41.747 47.767C41.747 47.4454 41.7756 47.1238 41.6256 46.8094C41.3683 46.2806 41.0039 45.9447 40.3964 45.9304C40.1821 45.9304 39.9677 45.9304 39.7533 45.9304C39.0458 45.9019 38.3956 46.6022 38.4027 47.3096C38.4027 47.8384 38.4027 48.3672 38.4027 48.8889C38.4027 54.3056 38.4027 59.7152 38.4027 65.1319C38.4027 65.432 38.4027 65.7321 38.4027 66.0394C38.3527 67.2543 37.8382 68.1832 36.7234 68.7478C35.5443 69.3409 34.4295 69.1908 33.4219 68.4119C32.7788 67.9188 32.3786 67.24 32.3286 66.4039C32.3071 66.0752 32.2928 65.7536 32.2928 65.4249C32.2928 57.9858 32.2928 50.5539 32.2928 43.1149C32.2928 42.0073 32.2928 40.9068 32.2928 39.7991C32.2928 35.4901 32.2928 31.1881 32.2928 26.8791C32.2928 26.6504 32.2142 26.4789 32.0427 26.3217C31.7569 26.0644 31.4925 25.7857 31.1995 25.4927C30.9994 25.6714 30.8279 25.8072 30.6707 25.9644C29.1271 27.5222 27.5836 29.0801 26.04 30.6379C25.3683 31.3096 24.6894 31.9814 23.9963 32.6388C23.789 32.8389 23.6961 33.0533 23.6961 33.332C23.6961 34.6397 23.6961 35.9474 23.6961 37.248C23.6961 37.884 23.6747 38.52 23.6747 39.1631C23.6747 40.0135 23.689 40.871 23.6961 41.7214C23.6961 42.486 23.6961 43.2507 23.6961 44.0224C23.6961 51.097 23.6961 58.1645 23.6961 65.2391C23.6961 65.6393 23.7176 66.0466 23.6961 66.4468C23.6533 67.0685 23.4818 67.6473 23.0744 68.1475C22.2098 69.2123 20.609 69.348 19.63 68.6263C18.9583 68.1332 18.5438 67.5044 18.5367 66.6468C18.5367 66.2824 18.5367 65.9179 18.5367 65.5535C18.5367 60.6299 18.5367 55.7062 18.5367 50.7826C18.5367 50.1895 18.2937 49.6678 17.7077 49.482C16.8002 49.1962 15.6425 49.4392 15.664 50.7826C15.6854 52.6049 15.664 54.4271 15.664 56.2493C15.664 59.5651 15.6711 62.8809 15.664 66.1966C15.664 66.8612 15.5353 67.5044 15.1137 68.0618C14.7493 68.5477 14.2776 68.8693 13.706 68.9907C12.3268 69.3052 11.0834 68.6477 10.6189 67.3329C10.4974 66.9827 10.4545 66.5968 10.4545 66.2252C10.4474 58.336 10.4474 50.4467 10.4474 42.5647C10.4474 39.4847 10.4474 36.4119 10.4474 33.332C10.4474 33.0747 10.3759 32.8889 10.1901 32.7031C8.47505 30.9952 6.76 29.2802 5.0521 27.5651C3.65862 26.1716 2.26514 24.771 0.864511 23.3775C0.285681 22.8844 -0.0287451 22.2556 -0.000160886 21.5124C0.0284233 20.712 0.45004 20.0975 1.03602 19.5544C1.77921 18.8612 3.16554 18.7898 3.90873 19.2971C4.30176 19.5687 4.65192 19.9188 4.99493 20.2618C5.55232 20.8049 6.08827 21.3623 6.63137 21.9126C7.36741 22.6558 8.1106 23.399 8.85379 24.1421C9.5684 24.8567 10.2901 25.5642 11.0048 26.2788C11.8265 27.1006 12.6412 27.9224 13.4558 28.7442C13.8131 29.1015 14.2205 29.3802 14.6564 29.6303C15.6997 30.2234 16.8359 30.2806 17.9721 30.1162C18.944 29.9733 19.7944 29.5017 20.5019 28.8228C21.5809 27.7938 22.6242 26.7219 23.6818 25.6714C24.7109 24.6424 25.7256 23.6062 26.7546 22.5772C26.9762 22.3556 27.2048 22.1484 27.4692 21.8911V21.884Z" fill="#D41D86"/>
<path d="M39.996 10.0144C43.276 9.90721 46.0129 12.7585 45.9772 15.9956C45.9415 19.2757 43.326 21.9269 39.9888 21.9197C36.6802 21.9126 34.079 19.2614 34.0433 15.9885C34.0076 12.7299 36.7588 9.91436 39.996 10.0144Z" fill="#D41D86"/>
<path d="M16.993 18.9684C19.8014 18.8755 22.0596 21.2623 22.0596 23.9778C22.0596 26.8147 19.7157 29.0729 16.9502 29.0372C14.2633 29.0014 11.9551 26.8076 11.9551 23.9635C11.9551 21.2551 14.2132 18.8826 16.993 18.9684Z" fill="#D41D86"/>
<path d="M62.9706 29.0301C60.1908 29.0801 57.854 26.729 57.9112 23.8635C57.9612 21.2552 60.1836 18.8684 63.1278 18.9541C65.7647 19.0256 68.0443 21.2552 68.0228 24.0421C67.9943 26.8863 65.6504 29.0801 62.9706 29.0372V29.0301Z" fill="#D41D86"/>
</g>
<defs>
<clipPath id="clip0_159_90425">
<rect width="80" height="59.1335" fill="white" transform="translate(0 10.0001)"/>
</clipPath>
</defs>
</svg>
