<svg width="127" height="24" viewBox="0 0 127 24" fill="none" xmlns="http://www.w3.org/2000/svg">
<path d="M25.7812 0.59375L15.1719 22.2031C15.0052 22.5365 14.7552 22.8021 14.4219 23C14.099 23.2083 13.7396 23.3125 13.3438 23.3125C12.9583 23.3125 12.599 23.2083 12.2656 23C11.9427 22.8021 11.6927 22.5365 11.5156 22.2031L0.921875 0.59375H5.46875L13.3438 16.7344L21.25 0.59375H25.7812ZM46.5 13.8438H33.6719V9.75H46.5V13.8438ZM48.3281 23H33.6719C33.1094 23 32.4948 22.901 31.8281 22.7031C31.1615 22.5052 30.5417 22.1823 29.9688 21.7344C29.4062 21.276 28.9323 20.6875 28.5469 19.9688C28.1719 19.2396 27.9844 18.349 27.9844 17.2969V2.64062C27.9844 2.35938 28.0365 2.09375 28.1406 1.84375C28.2448 1.59375 28.3854 1.375 28.5625 1.1875C28.75 1 28.9688 0.854167 29.2188 0.75C29.4688 0.645833 29.7396 0.59375 30.0312 0.59375H48.3281V4.65625H32.0469V17.2969C32.0469 17.8281 32.1875 18.2344 32.4688 18.5156C32.75 18.7969 33.1615 18.9375 33.7031 18.9375H48.3281V23ZM74.6562 8.125C74.6562 9.05208 74.5417 9.88021 74.3125 10.6094C74.0833 11.3385 73.7708 11.9844 73.375 12.5469C72.9896 13.099 72.5417 13.5729 72.0312 13.9688C71.5208 14.3646 70.9844 14.6927 70.4219 14.9531C69.8698 15.2031 69.3073 15.3854 68.7344 15.5C68.1719 15.6146 67.6406 15.6719 67.1406 15.6719L75.625 23H69.3438L60.875 15.6719H57.9531V11.6094H67.1406C67.651 11.5677 68.1146 11.4635 68.5312 11.2969C68.9583 11.1198 69.3229 10.8854 69.625 10.5938C69.9375 10.3021 70.1771 9.95312 70.3438 9.54688C70.5104 9.13021 70.5938 8.65625 70.5938 8.125V5.5625C70.5938 5.33333 70.5625 5.16146 70.5 5.04688C70.4479 4.92188 70.375 4.83333 70.2812 4.78125C70.1979 4.71875 70.1042 4.68229 70 4.67188C69.9062 4.66146 69.8177 4.65625 69.7344 4.65625H56.3281V23H52.2656V2.64062C52.2656 2.35938 52.3177 2.09375 52.4219 1.84375C52.526 1.59375 52.6667 1.375 52.8438 1.1875C53.0312 1 53.25 0.854167 53.5 0.75C53.75 0.645833 54.0208 0.59375 54.3125 0.59375H69.7344C70.6406 0.59375 71.4062 0.760417 72.0312 1.09375C72.6562 1.41667 73.1615 1.82812 73.5469 2.32812C73.9427 2.81771 74.224 3.34896 74.3906 3.92188C74.5677 4.49479 74.6562 5.03125 74.6562 5.53125V8.125ZM100.688 20.9531C100.688 21.2448 100.635 21.5156 100.531 21.7656C100.427 22.0156 100.281 22.2344 100.094 22.4219C99.9062 22.599 99.6875 22.7396 99.4375 22.8438C99.1875 22.9479 98.9219 23 98.6406 23H89.4844C88.6198 23 87.7448 22.9062 86.8594 22.7188C85.974 22.5312 85.1146 22.2448 84.2812 21.8594C83.4583 21.4635 82.6823 20.9635 81.9531 20.3594C81.224 19.7552 80.5833 19.0417 80.0312 18.2188C79.4896 17.3854 79.0625 16.4375 78.75 15.375C78.4375 14.3021 78.2812 13.1094 78.2812 11.7969V0.59375H82.3438V11.7969C82.3438 12.9427 82.5 13.9115 82.8125 14.7031C83.1354 15.4948 83.5417 16.1562 84.0312 16.6875C84.5208 17.2188 85.0573 17.6354 85.6406 17.9375C86.224 18.2396 86.776 18.4635 87.2969 18.6094C87.8281 18.7552 88.2917 18.849 88.6875 18.8906C89.0938 18.9219 89.3594 18.9375 89.4844 18.9375H96.625V0.59375H100.688V20.9531ZM126.953 16.4062C126.953 17.2083 126.849 17.9323 126.641 18.5781C126.443 19.2135 126.177 19.776 125.844 20.2656C125.51 20.7552 125.12 21.1719 124.672 21.5156C124.224 21.8594 123.76 22.1406 123.281 22.3594C122.802 22.5781 122.312 22.7396 121.812 22.8438C121.323 22.9479 120.859 23 120.422 23H104.75V18.9375H120.422C121.203 18.9375 121.807 18.7083 122.234 18.25C122.672 17.7917 122.891 17.1771 122.891 16.4062C122.891 16.0312 122.833 15.6875 122.719 15.375C122.604 15.0625 122.438 14.7917 122.219 14.5625C122.01 14.3333 121.75 14.1562 121.438 14.0312C121.135 13.9062 120.797 13.8438 120.422 13.8438H111.078C110.422 13.8438 109.714 13.7292 108.953 13.5C108.193 13.2604 107.484 12.8802 106.828 12.3594C106.182 11.8385 105.641 11.1562 105.203 10.3125C104.776 9.46875 104.562 8.4375 104.562 7.21875C104.562 6 104.776 4.97396 105.203 4.14062C105.641 3.29688 106.182 2.61458 106.828 2.09375C107.484 1.5625 108.193 1.18229 108.953 0.953125C109.714 0.713542 110.422 0.59375 111.078 0.59375H124.906V4.65625H111.078C110.307 4.65625 109.703 4.89062 109.266 5.35938C108.839 5.82812 108.625 6.44792 108.625 7.21875C108.625 8 108.839 8.61979 109.266 9.07812C109.703 9.52604 110.307 9.75 111.078 9.75H120.422H120.453C120.891 9.76042 121.354 9.82292 121.844 9.9375C122.333 10.0417 122.818 10.2083 123.297 10.4375C123.786 10.6667 124.25 10.9583 124.688 11.3125C125.125 11.6562 125.51 12.0729 125.844 12.5625C126.188 13.0521 126.458 13.6146 126.656 14.25C126.854 14.8854 126.953 15.6042 126.953 16.4062Z" fill="#F6F6F6"/>
</svg>
