<svg width="140" height="37" viewBox="0 0 140 37" fill="none" xmlns="http://www.w3.org/2000/svg">
<path d="M139.657 25.992C139.539 26.1363 139.394 26.2657 139.302 26.4247C139.05 26.8686 138.81 27.3199 138.592 27.7822C138.366 28.2556 137.97 28.3888 137.501 28.3925C136.883 28.3999 136.262 28.3851 135.644 28.3851C132.285 28.3851 128.927 28.3851 125.568 28.4036C125.195 28.4036 124.932 28.3074 124.751 27.9671C124.492 27.4937 124.193 27.0388 123.937 26.5616C123.516 25.7738 123.542 24.9194 123.597 24.0649C123.608 23.917 123.641 23.769 123.641 23.6211C123.641 19.6597 123.667 15.7021 123.623 11.7407C123.612 10.8715 123.989 10.2168 124.363 9.50663C124.792 8.6966 125.372 8.39331 126.323 8.4118C129.848 8.47468 133.377 8.46728 136.905 8.4192C137.896 8.4044 138.544 8.7188 138.921 9.6287C139.05 9.93939 139.228 10.2316 139.402 10.5201C139.443 10.5867 139.572 10.5941 139.657 10.6311V11.4633C139.598 11.4818 139.498 11.4892 139.483 11.5262C139.328 11.9922 138.988 12.0255 138.555 12.0292C135.045 12.044 131.538 12.0847 128.028 12.1069C127.684 12.1069 127.551 12.2548 127.551 12.5692C127.551 13.6788 127.544 14.7885 127.562 15.8981C127.566 16.1681 127.607 16.4862 128.002 16.5084C128.339 16.5269 128.675 16.5639 129.012 16.5676C131.165 16.5972 133.321 16.6304 135.474 16.6341C135.936 16.6341 136.054 16.8598 136.054 17.2481C136.054 18.0027 136.051 18.7572 136.047 19.5155C136.047 19.9556 135.862 20.1554 135.418 20.1702C134.863 20.185 134.309 20.1776 133.754 20.1813C131.816 20.2034 129.878 20.2293 127.939 20.2515C127.732 20.2515 127.54 20.2404 127.544 20.5511C127.551 21.8753 127.544 23.2031 127.54 24.5273C127.54 24.7899 127.662 24.8898 127.91 24.8713C128.257 24.8454 128.609 24.7825 128.953 24.7936C132.518 24.9231 136.099 24.4755 139.653 25.0562V25.9809L139.657 25.992Z" fill="#F6F6F6"/>
<path d="M102.048 18.7313C102.122 18.8127 102.259 18.9052 102.326 19.0346C102.884 20.1332 103.42 21.2428 103.983 22.3413C104.131 22.6335 104.33 22.8998 104.508 23.1772C105.126 23.0995 105.24 22.5558 105.436 22.1675C106.231 20.614 106.956 19.0272 107.729 17.4663C108.107 16.7044 108.558 15.9757 108.939 15.2175C109.76 13.579 110.552 11.9256 111.362 10.2834C111.473 10.0577 111.669 9.858 111.728 9.62128C111.983 8.62261 112.623 8.3526 113.577 8.49685C113.958 8.55233 114.221 8.69289 114.395 9.01838C114.65 9.49552 114.872 9.99486 115.157 10.4572C115.382 10.8271 115.345 11.1489 115.16 11.5113C114.132 13.5235 113.119 15.543 112.094 17.5588C111.761 18.2135 111.421 18.8645 111.066 19.5081C111.007 19.6116 110.866 19.6745 110.814 19.7152C110.774 19.926 110.774 20.1221 110.7 20.2774C110.463 20.7619 110.193 21.2317 109.945 21.7125C109.571 22.4486 109.22 23.192 108.839 23.9244C108.366 24.8269 107.87 25.7146 107.393 26.6171C107.304 26.7872 107.282 26.9906 107.189 27.1571C106.997 27.5159 106.801 27.871 106.568 28.2038C106.498 28.3037 106.305 28.3703 106.169 28.3703C105.077 28.3888 103.983 28.4036 102.888 28.374C102.729 28.3703 102.462 28.141 102.44 27.993C102.34 27.2533 101.826 26.7095 101.601 26.0327C101.49 25.6961 101.227 25.4113 101.061 25.0895C100.75 24.494 100.476 23.88 100.162 23.2882C99.6329 22.2969 99.0743 21.3204 98.5417 20.3329C98.4677 20.1923 98.4973 20 98.4234 19.8594C97.5246 18.1358 96.6147 16.4159 95.7159 14.6923C95.505 14.2891 95.3423 13.8564 95.1352 13.4495C94.806 12.7948 94.4694 12.1401 94.118 11.4966C93.8924 11.0823 93.9072 10.7087 94.1698 10.3166C94.5027 9.81731 94.7912 9.29209 95.1389 8.80386C95.2387 8.6633 95.4681 8.61152 95.6382 8.51906C95.6493 8.51166 95.6678 8.51906 95.6826 8.51906C96.6443 8.33782 97.1954 8.6818 97.6059 9.63608C98.342 11.3338 99.2593 12.9502 100.099 14.6035C100.702 15.7908 101.301 16.9818 101.893 18.1765C101.97 18.3356 101.989 18.5242 102.044 18.7424L102.048 18.7313Z" fill="#F6F6F6"/>
<path d="M65.1751 26.9315C64.9716 27.4345 64.857 27.8746 64.6166 28.2297C64.5204 28.374 64.1468 28.3592 63.899 28.3629C63.0224 28.374 62.1421 28.3407 61.2655 28.374C60.8919 28.3888 60.7329 28.2297 60.5849 27.9301C59.7601 26.2916 58.9131 24.6678 58.0883 23.0293C57.6333 22.1268 57.2264 21.2021 56.7715 20.2996C56.335 19.4378 55.8505 18.5982 55.4104 17.7401C55.0331 17.004 54.6854 16.2531 54.3192 15.5134C53.8495 14.5628 53.3797 13.6122 52.8989 12.6654C52.6326 12.1475 52.3256 11.6482 52.0741 11.123C52.0075 10.9898 52.0223 10.7605 52.0926 10.6273C52.4218 10.0059 52.7657 9.38825 53.1541 8.80015C53.2577 8.6448 53.5166 8.54494 53.7163 8.51535C54.0159 8.46727 54.3377 8.54124 54.6373 8.49316C55.0109 8.43398 55.1773 8.6633 55.3031 8.91481C55.9467 10.2094 56.557 11.5187 57.2006 12.817C57.9403 14.3187 58.6949 15.813 59.4531 17.3036C60.1781 18.7387 60.903 20.1775 61.6465 21.6016C61.8795 22.0528 62.1791 22.4671 62.4343 22.9072C62.6007 23.1957 62.745 23.229 62.9151 22.9183C63.4958 21.8642 64.1061 20.8248 64.6573 19.7596C65.5561 18.0212 66.4253 16.2679 67.3019 14.5221C67.7457 13.6381 68.1896 12.7578 68.6297 11.8701C69.1327 10.8567 69.6284 9.8395 70.124 8.82234C70.2313 8.60042 70.3718 8.52645 70.6381 8.48206C71.8254 8.28233 72.4431 8.92961 72.8907 9.88389C72.9277 9.96526 72.9499 10.0577 73.0053 10.1243C73.5787 10.816 73.3826 11.4374 72.9018 12.0957C72.3211 12.8947 72.003 13.8416 71.5443 14.7108C70.8897 15.961 70.2646 17.2259 69.6247 18.4835C68.7888 20.1183 67.9454 21.7532 67.1132 23.3881C66.6028 24.3867 66.1109 25.3928 65.593 26.3841C65.4784 26.606 65.286 26.7872 65.1788 26.9204L65.1751 26.9315Z" fill="#F6F6F6"/>
<path d="M82.9731 8.50793C83.5501 8.50793 84.0087 8.50793 84.4711 8.50793C85.503 8.50793 85.7065 8.71506 85.7065 9.76181C85.6991 15.3691 85.6917 20.9764 85.6843 26.5875C85.6843 26.8797 85.7065 27.1719 85.6917 27.4641C85.6584 28.1298 85.4401 28.374 84.7781 28.3924C83.9163 28.4183 83.0544 28.3851 82.1889 28.4035C81.8154 28.4109 81.8265 28.1113 81.7784 27.9079C81.7081 27.6268 81.7118 27.3272 81.7118 27.035C81.7118 22.4301 81.7118 17.8214 81.7118 13.2164C81.7118 12.4804 81.6785 11.7406 81.6748 11.0046C81.6748 10.8603 81.6933 10.6939 81.7636 10.5718C82.1852 9.83208 82.6217 9.10343 82.9694 8.50793H82.9731Z" fill="#F6F6F6"/>
<path d="M0.69022 29.8757V28.7661C0.845568 28.7365 0.838175 28.6108 0.845573 28.4961C0.845573 28.4813 0.85297 28.4665 0.856669 28.4517C0.997222 28.1595 1.12298 27.8599 1.27833 27.5751C1.43367 27.294 1.61861 27.0277 1.78505 26.7503C1.93301 26.4988 2.06986 26.2436 2.21781 25.992C2.71344 25.1561 3.20538 24.3239 3.70471 23.4917C3.91924 23.1329 4.15226 22.7852 4.36679 22.4227C4.56652 22.0862 4.74036 21.7311 4.95119 21.4056C5.13243 21.1245 5.25079 20.8064 5.47641 20.5512C5.59477 20.4143 5.65396 20.222 5.74643 20.0592C5.93506 19.7337 6.12739 19.4082 6.31973 19.0865C6.38631 18.9755 6.46029 18.8719 6.53056 18.7647C6.55275 18.7314 6.57125 18.6981 6.58974 18.6611C6.62303 18.5871 6.64892 18.5095 6.68591 18.4429C6.93373 18.0212 7.18524 17.6033 7.44045 17.1853C7.50333 17.0854 7.58471 16.993 7.65498 16.8968C7.66978 16.8746 7.68457 16.8524 7.69197 16.8302C7.71047 16.7821 7.71417 16.7267 7.74006 16.686C8.11733 16.0498 8.502 15.4136 8.88297 14.7774C9.25285 14.1634 9.61903 13.5457 9.98521 12.928C10.2922 12.4065 10.5918 11.885 10.9025 11.3635C11.4351 10.4757 11.9714 9.59545 12.5041 8.70774C12.652 8.46363 12.7852 8.20842 12.9294 7.9606C13.1217 7.63511 13.3141 7.30961 13.5101 6.98412C13.5397 6.93604 13.5952 6.90645 13.6211 6.86207C13.684 6.75111 13.732 6.62905 13.7949 6.51809C14.1648 5.893 14.5421 5.2679 14.9119 4.64281C15.0488 4.41349 15.1783 4.17677 15.3188 3.94745C15.4705 3.69223 15.6332 3.44442 15.7849 3.1892C15.9402 2.92289 16.0844 2.64918 16.2398 2.38657C16.3471 2.20533 16.4654 2.0278 16.5912 1.86135C16.7391 1.66902 16.9019 1.48778 17.0683 1.30654C17.1275 1.24366 17.2052 1.18448 17.2866 1.15489C17.3864 1.1216 17.5011 1.1253 17.6083 1.1068C17.6786 1.09571 17.7526 1.07721 17.8229 1.06242C18.0929 1.01433 18.3629 0.936663 18.6366 0.925567C19.184 0.903374 19.7314 0.907069 20.2788 0.921864C21.7546 0.955153 23.2378 0.833087 24.7137 0.995833C25.0983 1.04022 25.4645 1.1105 25.7678 1.3953C26.0674 1.67641 26.3448 1.96861 26.5593 2.31999C26.7665 2.66028 26.9588 3.00797 27.1622 3.35195C27.4396 3.82539 27.7207 4.29513 28.0019 4.76487C28.3125 5.28269 28.6306 5.79313 28.9413 6.31096C29.4 7.0803 29.8549 7.84964 30.3099 8.61898C30.7389 9.34394 31.1606 10.0689 31.5896 10.7938C31.7043 10.9899 31.8375 11.1748 31.9558 11.3672C32.248 11.8554 32.5328 12.3473 32.8213 12.8356C32.9471 13.0501 33.0691 13.2609 33.1986 13.4717C33.2911 13.6271 33.3909 13.7824 33.4834 13.9415C33.587 14.1153 33.6905 14.2892 33.7941 14.463C34.1603 15.0733 34.5265 15.6836 34.8889 16.2976C35.1553 16.7452 35.4179 17.1927 35.6879 17.6366C35.9579 18.073 36.1798 18.5316 36.4609 18.9607C36.6385 19.2307 36.7864 19.5192 36.9492 19.7966C36.9972 19.8743 37.0564 19.9446 37.1045 20.0222C37.2598 20.2849 37.4152 20.5512 37.5705 20.8175C37.7111 21.0653 37.8442 21.3168 37.9885 21.5646C38.0884 21.7311 38.2067 21.8827 38.3066 22.0492C38.5914 22.5189 38.8688 22.9923 39.1499 23.4658C39.2905 23.7062 39.4236 23.954 39.5679 24.1944C39.7047 24.4238 39.8527 24.6494 39.9969 24.875C40.1819 25.1672 40.3298 25.4816 40.5184 25.7738C40.6812 26.0253 40.8328 26.2842 40.9845 26.5395C41.2286 26.9463 41.4764 27.3532 41.7132 27.7638C41.7871 27.8932 41.8204 28.0449 41.8944 28.1743C42.0201 28.3962 42.0682 28.6329 42.0941 28.8771C42.1163 29.0842 42.1163 29.2913 42.083 29.5059C42.0534 29.713 42.009 29.909 41.924 30.094C41.7945 30.3714 41.6429 30.6414 41.4912 30.9114C41.273 31.3035 41.0474 31.6918 40.8218 32.0802C40.548 32.5425 40.2706 33.0012 39.9932 33.4635C39.7343 33.8926 39.4717 34.3253 39.2091 34.7507C38.9872 35.1095 38.7467 35.4387 38.3843 35.6828C38.1586 35.8344 37.933 35.9602 37.6741 36.012C37.43 36.0601 37.1785 36.0859 36.9306 36.0896C36.4646 36.097 35.9949 36.0749 35.5288 36.0749C27.2584 36.0749 18.9843 36.0749 10.7139 36.0749C9.44149 36.0749 8.16911 36.0675 6.90044 36.0749C6.35672 36.0786 5.8241 36.086 5.28038 36.0046C4.70707 35.9158 4.27802 35.6495 3.95253 35.1982C3.70471 34.8506 3.48648 34.4844 3.25716 34.1219C3.00934 33.7335 2.75783 33.3452 2.52111 32.9494C2.21411 32.4279 1.92561 31.899 1.62601 31.3737C1.31532 30.8263 0.967629 30.2974 0.819679 29.6723C0.808583 29.6316 0.771593 29.5983 0.730907 29.5429C0.712413 29.6723 0.69762 29.7685 0.686523 29.8646L0.69022 29.8757ZM19.6796 10.4832C19.7166 10.6126 19.6057 10.6237 19.5317 10.6533C19.4466 10.6866 19.3468 10.694 19.2617 10.7273C18.8289 10.8789 18.4332 11.1008 18.0818 11.3857C17.6453 11.7407 17.22 12.1143 16.8168 12.5027C16.4136 12.891 16.0327 13.3053 15.6554 13.7233C15.3558 14.0598 15.0858 14.4223 14.7862 14.7589C14.4311 15.1547 14.1463 15.6059 13.8393 16.035C13.6211 16.3383 13.4213 16.6564 13.229 16.9782C12.9405 17.459 12.652 17.9398 12.3931 18.4355C12.1453 18.9015 11.9233 19.3824 11.7088 19.8669C11.5313 20.2627 11.3833 20.6732 11.2243 21.0764C11.1614 21.2317 11.0985 21.3871 11.0504 21.5498C10.8396 22.26 10.6251 22.9702 10.4291 23.684C10.3514 23.9651 10.2848 24.2536 10.2478 24.5458C10.2034 24.8713 10.1738 25.2005 10.1849 25.5297C10.196 25.8182 10.2737 26.1067 10.3218 26.3952C10.3292 26.4396 10.3514 26.4766 10.3625 26.521C10.381 26.606 10.3847 26.6911 10.4069 26.7725C10.4327 26.8612 10.4771 26.95 10.5141 27.0351C10.6399 27.3125 10.7508 27.5973 10.8914 27.8636C10.9765 28.0227 11.1133 28.1558 11.2206 28.3038C11.5646 28.7735 12.0047 29.1508 12.4449 29.5244C12.541 29.6094 12.6705 29.6575 12.7667 29.7463C12.9146 29.8831 13.0959 29.946 13.2771 30.0126C13.3622 30.0459 13.4398 30.094 13.5175 30.1383C13.5656 30.1642 13.61 30.2086 13.6581 30.2271C13.7764 30.2678 13.8985 30.2974 14.0169 30.3381C14.2277 30.4121 14.4311 30.5082 14.6419 30.5637C14.9415 30.6451 15.2485 30.6932 15.5481 30.7708C15.7553 30.8263 15.955 30.9077 16.1621 30.978C16.2213 30.9965 16.2842 31.0186 16.3471 31.026C16.4691 31.0334 16.5912 31.0261 16.7132 31.0335C17.0757 31.063 17.4382 31.0926 17.8007 31.1333C17.9523 31.1518 18.1299 31.1555 18.2408 31.2369C18.3666 31.3293 18.4812 31.3072 18.6033 31.3145C18.9251 31.333 19.2469 31.3478 19.5687 31.3663C19.8794 31.3848 20.1901 31.4218 20.5008 31.4218C21.1592 31.4218 21.8175 31.4107 22.4759 31.3996C22.6608 31.3996 22.8421 31.3885 23.0233 31.37C23.3118 31.3404 23.6003 31.2961 23.8888 31.2628C24.488 31.1925 25.0872 31.1296 25.6864 31.0593C25.7493 31.0519 25.8159 31.0371 25.8751 31.0149C25.9749 30.978 26.0637 30.9114 26.1673 30.8892C26.3818 30.8411 26.5963 30.8189 26.8109 30.7819C27.0439 30.7449 27.2732 30.7043 27.5062 30.6784C27.706 30.6562 27.902 30.634 28.0499 30.4712C28.0684 30.4527 28.1054 30.4453 28.135 30.4416C28.4975 30.3677 28.8637 30.2937 29.2261 30.2197C29.2187 30.2049 29.2113 30.1901 29.2039 30.1753C29.2483 30.1346 29.289 30.0792 29.3445 30.057C29.522 29.9867 29.707 29.9349 29.8882 29.8683C29.9252 29.8535 29.977 29.8387 29.9918 29.8055C30.0436 29.6945 30.1471 29.6649 30.2396 29.6131C30.3284 29.565 30.4097 29.5022 30.4911 29.4393C30.5281 29.4097 30.5577 29.369 30.5947 29.3357C30.824 29.1138 31.0644 28.9067 31.2753 28.6699C31.6932 28.2039 32.0372 27.6861 32.2554 27.0906C32.433 26.6097 32.5661 26.1178 32.5883 25.6C32.6105 25.0674 32.5698 24.5421 32.4552 24.0206C32.3516 23.5509 32.2147 23.0885 32.1038 22.6225C31.9965 22.1564 31.782 21.7274 31.6673 21.265C31.6192 21.0764 31.5194 20.9025 31.4528 20.7176C31.1643 19.952 30.8351 19.2085 30.443 18.491C30.2988 18.2283 30.1286 17.9768 29.977 17.7179C29.8475 17.496 29.7366 17.2593 29.596 17.0447C29.1929 16.4308 28.7897 15.8168 28.3606 15.2213C28.0388 14.7774 27.6801 14.3595 27.3324 13.9378C27.1474 13.7159 26.9588 13.4976 26.7591 13.2905C26.4595 12.9798 26.1451 12.6765 25.8381 12.3695C25.3055 11.8332 24.7543 11.3191 24.0701 10.9751C23.9221 10.9011 23.7779 10.8234 23.6225 10.768C23.4413 10.7014 23.2416 10.6829 23.101 10.5275C23.0677 10.4906 22.9974 10.4832 22.942 10.4721C22.8976 10.461 22.8495 10.4721 22.8051 10.4647C22.4833 10.4166 22.1615 10.35 21.836 10.3241C21.4846 10.2982 21.1296 10.2908 20.7782 10.3167C20.412 10.3463 20.0532 10.424 19.6686 10.4868L19.6796 10.4832Z" fill="#F6F6F6"/>
</svg>
